<svg xmlns="http://www.w3.org/2000/svg" xmlns:xlink="http://www.w3.org/1999/xlink" viewBox="0 0 650.89 400"><defs><style>.cls-1{isolation:isolate;}.cls-2{fill:#f1f1f4;}.cls-3{fill:#e0f3ff;}.cls-4{fill:url(#Áåçûìÿííûé_ãðàäèåíò_29);}.cls-5{fill:url(#Áåçûìÿííûé_ãðàäèåíò_28);}.cls-6{fill:#e5e2ff;}.cls-7{fill:url(#Áåçûìÿííûé_ãðàäèåíò_28-2);}.cls-8,.cls-9{opacity:0.62;}.cls-116,.cls-15,.cls-16,.cls-17,.cls-20,.cls-22,.cls-28,.cls-31,.cls-33,.cls-36,.cls-37,.cls-38,.cls-39,.cls-40,.cls-41,.cls-42,.cls-43,.cls-44,.cls-45,.cls-46,.cls-47,.cls-48,.cls-49,.cls-50,.cls-51,.cls-52,.cls-55,.cls-56,.cls-57,.cls-58,.cls-59,.cls-60,.cls-64,.cls-75,.cls-78,.cls-79,.cls-8,.cls-80,.cls-84,.cls-85,.cls-9,.cls-92,.cls-93,.cls-94,.cls-95,.cls-96,.cls-97{mix-blend-mode:multiply;}.cls-8{fill:url(#Áåçûìÿííûé_ãðàäèåíò_27);}.cls-9{fill:url(#Áåçûìÿííûé_ãðàäèåíò_94);}.cls-10,.cls-116,.cls-20,.cls-22,.cls-37,.cls-38,.cls-39,.cls-40,.cls-41,.cls-42,.cls-43,.cls-44,.cls-45,.cls-47,.cls-49,.cls-50,.cls-51,.cls-52,.cls-55,.cls-57,.cls-58,.cls-59,.cls-60,.cls-80{opacity:0.5;}.cls-10{mix-blend-mode:screen;fill:url(#Áåçûìÿííûé_ãðàäèåíò_95);}.cls-11{fill:#fff;}.cls-12{fill:url(#Áåçûìÿííûé_ãðàäèåíò_74);}.cls-13{fill:url(#Áåçûìÿííûé_ãðàäèåíò_26);}.cls-14{fill:url(#Áåçûìÿííûé_ãðàäèåíò_26-2);}.cls-15,.cls-16,.cls-17,.cls-46{opacity:0.76;}.cls-15{fill:url(#Áåçûìÿííûé_ãðàäèåíò_70);}.cls-16{fill:url(#Áåçûìÿííûé_ãðàäèåíò_70-2);}.cls-17{fill:url(#Áåçûìÿííûé_ãðàäèåíò_70-3);}.cls-18{fill:#fe9083;}.cls-19{fill:url(#Áåçûìÿííûé_ãðàäèåíò_354);}.cls-20{fill:url(#Áåçûìÿííûé_ãðàäèåíò_70-4);}.cls-21{fill:url(#Áåçûìÿííûé_ãðàäèåíò_26-3);}.cls-22{fill:url(#Áåçûìÿííûé_ãðàäèåíò_70-5);}.cls-23{fill:url(#Áåçûìÿííûé_ãðàäèåíò_178);}.cls-24{fill:url(#Áåçûìÿííûé_ãðàäèåíò_55);}.cls-25{fill:#cb4d7a;}.cls-26{fill:#ee8183;}.cls-27{fill:url(#Áåçûìÿííûé_ãðàäèåíò_71);}.cls-28,.cls-33,.cls-64,.cls-75,.cls-78,.cls-79,.cls-90,.cls-92{opacity:0.6;}.cls-28{fill:url(#Áåçûìÿííûé_ãðàäèåíò_48);}.cls-29{fill:url(#Áåçûìÿííûé_ãðàäèåíò_71-2);}.cls-30{fill:#e28183;}.cls-31,.cls-36{opacity:0.91;}.cls-31{fill:url(#Áåçûìÿííûé_ãðàäèåíò_73);}.cls-32{fill:url(#Áåçûìÿííûé_ãðàäèåíò_71-3);}.cls-33{fill:url(#Áåçûìÿííûé_ãðàäèåíò_48-2);}.cls-34{fill:url(#Áåçûìÿííûé_ãðàäèåíò_64);}.cls-35{fill:url(#Áåçûìÿííûé_ãðàäèåíò_64-2);}.cls-36{fill:url(#Áåçûìÿííûé_ãðàäèåíò_73-2);}.cls-37{fill:url(#Áåçûìÿííûé_ãðàäèåíò_70-6);}.cls-38{fill:url(#Áåçûìÿííûé_ãðàäèåíò_70-7);}.cls-39{fill:url(#Áåçûìÿííûé_ãðàäèåíò_4);}.cls-40{fill:url(#Áåçûìÿííûé_ãðàäèåíò_4-2);}.cls-41{fill:url(#Áåçûìÿííûé_ãðàäèåíò_4-3);}.cls-42{fill:url(#Áåçûìÿííûé_ãðàäèåíò_4-4);}.cls-43{fill:url(#Áåçûìÿííûé_ãðàäèåíò_4-5);}.cls-44{fill:url(#Áåçûìÿííûé_ãðàäèåíò_4-6);}.cls-45{fill:url(#Áåçûìÿííûé_ãðàäèåíò_4-7);}.cls-46{fill:url(#Áåçûìÿííûé_ãðàäèåíò_70-8);}.cls-47{fill:url(#Áåçûìÿííûé_ãðàäèåíò_70-9);}.cls-48,.cls-56,.cls-93,.cls-94,.cls-95,.cls-96{opacity:0.3;}.cls-48{fill:url(#Áåçûìÿííûé_ãðàäèåíò_70-10);}.cls-49{fill:url(#Áåçûìÿííûé_ãðàäèåíò_4-8);}.cls-50{fill:url(#Áåçûìÿííûé_ãðàäèåíò_70-11);}.cls-51{fill:url(#Áåçûìÿííûé_ãðàäèåíò_4-9);}.cls-52{fill:url(#Áåçûìÿííûé_ãðàäèåíò_4-10);}.cls-53{fill:url(#Áåçûìÿííûé_ãðàäèåíò_25);}.cls-54{fill:#ebefff;}.cls-55{fill:url(#Áåçûìÿííûé_ãðàäèåíò_70-12);}.cls-56{fill:url(#Áåçûìÿííûé_ãðàäèåíò_70-13);}.cls-57{fill:url(#Áåçûìÿííûé_ãðàäèåíò_70-14);}.cls-58{fill:url(#Áåçûìÿííûé_ãðàäèåíò_70-15);}.cls-59{fill:url(#Áåçûìÿííûé_ãðàäèåíò_70-16);}.cls-60{fill:#7a4ac0;}.cls-61{fill:url(#Áåçûìÿííûé_ãðàäèåíò_71-4);}.cls-62{fill:url(#Áåçûìÿííûé_ãðàäèåíò_71-5);}.cls-63{fill:url(#Áåçûìÿííûé_ãðàäèåíò_387);}.cls-64{fill:url(#Áåçûìÿííûé_ãðàäèåíò_48-3);}.cls-65{fill:#38368e;}.cls-66{fill:url(#Áåçûìÿííûé_ãðàäèåíò_59);}.cls-67{fill:url(#Áåçûìÿííûé_ãðàäèåíò_184);}.cls-68{fill:#ffebed;}.cls-69{fill:#7f9ec9;}.cls-70{fill:#131163;}.cls-71{fill:#c6659c;}.cls-72{fill:#cb5f7d;}.cls-73{fill:#9f4a8b;}.cls-74{fill:#ffbcaf;}.cls-75{fill:url(#Áåçûìÿííûé_ãðàäèåíò_48-4);}.cls-76{fill:url(#Áåçûìÿííûé_ãðàäèåíò_292);}.cls-77{fill:#d2726c;}.cls-78{fill:url(#Áåçûìÿííûé_ãðàäèåíò_35);}.cls-79{fill:url(#Áåçûìÿííûé_ãðàäèåíò_52);}.cls-80{fill:url(#Áåçûìÿííûé_ãðàäèåíò_397);}.cls-81{fill:url(#Áåçûìÿííûé_ãðàäèåíò_141);}.cls-82{fill:url(#Áåçûìÿííûé_ãðàäèåíò_141-2);}.cls-83{fill:url(#Áåçûìÿííûé_ãðàäèåíò_141-3);}.cls-84,.cls-85{opacity:0.8;}.cls-84{fill:url(#Áåçûìÿííûé_ãðàäèåíò_285);}.cls-85{fill:url(#Áåçûìÿííûé_ãðàäèåíò_285-2);}.cls-86{fill:#34c7ff;}.cls-87{fill:url(#Áåçûìÿííûé_ãðàäèåíò_141-4);}.cls-88{fill:url(#Áåçûìÿííûé_ãðàäèåíò_141-5);}.cls-89{fill:url(#Áåçûìÿííûé_ãðàäèåíò_141-6);}.cls-90{fill:#36d1f7;}.cls-91{fill:#744ca2;}.cls-92{fill:url(#Áåçûìÿííûé_ãðàäèåíò_89);}.cls-93{fill:url(#Áåçûìÿííûé_ãðàäèåíò_85);}.cls-94{fill:url(#Áåçûìÿííûé_ãðàäèåíò_85-2);}.cls-95{fill:url(#Áåçûìÿííûé_ãðàäèåíò_85-3);}.cls-96{fill:url(#Áåçûìÿííûé_ãðàäèåíò_85-4);}.cls-97{fill:#d1d4fb;}.cls-117,.cls-98{mix-blend-mode:soft-light;}.cls-99{fill:#e0ffff;}.cls-100{fill:url(#Áåçûìÿííûé_ãðàäèåíò_65);}.cls-101{fill:url(#Áåçûìÿííûé_ãðàäèåíò_14);}.cls-102{opacity:0.81;fill:url(#Áåçûìÿííûé_ãðàäèåíò_115);}.cls-103{fill:#473da2;}.cls-104{fill:url(#Áåçûìÿííûé_ãðàäèåíò_302);}.cls-105{fill:url(#Áåçûìÿííûé_ãðàäèåíò_302-2);}.cls-106{fill:url(#Áåçûìÿííûé_ãðàäèåíò_322);}.cls-107{fill:url(#Áåçûìÿííûé_ãðàäèåíò_322-2);}.cls-108{fill:url(#Áåçûìÿííûé_ãðàäèåíò_25-2);}.cls-109{fill:url(#Áåçûìÿííûé_ãðàäèåíò_25-3);}.cls-110,.cls-112{opacity:0.73;}.cls-110{fill:url(#Áåçûìÿííûé_ãðàäèåíò_97);}.cls-111{fill:#953da2;}.cls-112{fill:url(#Áåçûìÿííûé_ãðàäèåíò_97-2);}.cls-113,.cls-114,.cls-115,.cls-116,.cls-117,.cls-121,.cls-122,.cls-123,.cls-124{fill-rule:evenodd;}.cls-113{fill:url(#Áåçûìÿííûé_ãðàäèåíò_206);}.cls-114{fill:url(#Áåçûìÿííûé_ãðàäèåíò_206-2);}.cls-115{fill:url(#Áåçûìÿííûé_ãðàäèåíò_107);}.cls-116{fill:#601734;}.cls-117{fill:#b3d9ff;}.cls-118{fill:#ff1d9c;}.cls-119{fill:#6877ff;}.cls-120{fill:#4f31e0;}.cls-121{fill:url(#Áåçûìÿííûé_ãðàäèåíò_107-2);}.cls-122{fill:url(#Áåçûìÿííûé_ãðàäèåíò_206-3);}.cls-123{fill:url(#Áåçûìÿííûé_ãðàäèåíò_107-3);}.cls-124{fill:url(#Áåçûìÿííûé_ãðàäèåíò_206-4);}.cls-125{fill:none;}</style><linearGradient id="Áåçûìÿííûé_ãðàäèåíò_29" x1="159.23" y1="284.31" x2="159.23" y2="213.12" gradientTransform="matrix(0.91, -0.42, 0.42, 0.91, -75.05, 53.74)" gradientUnits="userSpaceOnUse"><stop offset="0" stop-color="#dbccff"/><stop offset="1" stop-color="#d1bbff"/></linearGradient><linearGradient id="Áåçûìÿííûé_ãðàäèåíò_28" x1="159.23" y1="287.08" x2="159.23" y2="215.89" gradientTransform="matrix(0.91, -0.42, 0.42, 0.91, -75.05, 53.74)" gradientUnits="userSpaceOnUse"><stop offset="0" stop-color="#b5a6e7"/><stop offset="1" stop-color="#7760bf"/></linearGradient><linearGradient id="Áåçûìÿííûé_ãðàäèåíò_28-2" x1="159.23" y1="269.38" x2="159.23" y2="239.38" xlink:href="#Áåçûìÿííûé_ãðàäèåíò_28"/><linearGradient id="Áåçûìÿííûé_ãðàäèåíò_27" x1="154.97" y1="239.98" x2="163.48" y2="239.98" gradientTransform="matrix(0.91, -0.42, 0.42, 0.91, -75.05, 53.74)" gradientUnits="userSpaceOnUse"><stop offset="0" stop-color="#8b8be0"/><stop offset="1" stop-color="#a177b7"/></linearGradient><linearGradient id="Áåçûìÿííûé_ãðàäèåíò_94" x1="159.23" y1="241.95" x2="159.23" y2="236.8" gradientTransform="matrix(0.91, -0.42, 0.42, 0.91, -75.05, 53.74)" gradientUnits="userSpaceOnUse"><stop offset="0" stop-color="#fff"/><stop offset="1" stop-color="#a177b7"/></linearGradient><linearGradient id="Áåçûìÿííûé_ãðàäèåíò_95" x1="163.73" y1="272.45" x2="163.73" y2="239.37" gradientTransform="matrix(0.91, -0.42, 0.42, 0.91, -75.05, 53.74)" gradientUnits="userSpaceOnUse"><stop offset="0"/><stop offset="1" stop-color="#fff"/></linearGradient><linearGradient id="Áåçûìÿííûé_ãðàäèåíò_74" x1="301.72" y1="400.04" x2="301.72" y2="310.83" gradientUnits="userSpaceOnUse"><stop offset="0" stop-color="#6456c0"/><stop offset="1" stop-color="#5f2c95"/></linearGradient><linearGradient id="Áåçûìÿííûé_ãðàäèåíò_26" x1="272.85" y1="368.72" x2="296.25" y2="368.72" gradientUnits="userSpaceOnUse"><stop offset="0" stop-color="#9e8cef"/><stop offset="1" stop-color="#caafee"/></linearGradient><linearGradient id="Áåçûìÿííûé_ãðàäèåíò_26-2" x1="320.1" y1="368.72" x2="343.5" y2="368.72" gradientTransform="matrix(-1, 0, 0, 1, 647.63, 0)" xlink:href="#Áåçûìÿííûé_ãðàäèåíò_26"/><linearGradient id="Áåçûìÿííûé_ãðàäèåíò_70" x1="298.58" y1="400.04" x2="298.58" y2="310.83" gradientUnits="userSpaceOnUse"><stop offset="0" stop-color="#ccf"/><stop offset="1" stop-color="#755cbb"/></linearGradient><linearGradient id="Áåçûìÿííûé_ãðàäèåíò_70-2" x1="409.44" y1="337.24" x2="409.44" y2="312.9" xlink:href="#Áåçûìÿííûé_ãðàäèåíò_70"/><linearGradient id="Áåçûìÿííûé_ãðàäèåíò_70-3" x1="381.26" y1="328.29" x2="381.26" y2="304.45" xlink:href="#Áåçûìÿííûé_ãðàäèåíò_70"/><linearGradient id="Áåçûìÿííûé_ãðàäèåíò_354" x1="304.97" y1="176.49" x2="304.97" y2="140.88" gradientUnits="userSpaceOnUse"><stop offset="0" stop-color="#d5cdf8"/><stop offset="1" stop-color="#f3edfb"/></linearGradient><linearGradient id="Áåçûìÿííûé_ãðàäèåíò_70-4" x1="286.63" y1="158.65" x2="323.3" y2="158.65" xlink:href="#Áåçûìÿííûé_ãðàäèåíò_70"/><linearGradient id="Áåçûìÿííûé_ãðàäèåíò_26-3" x1="294.48" y1="318.77" x2="294.48" y2="139.33" xlink:href="#Áåçûìÿííûé_ãðàäèåíò_26"/><linearGradient id="Áåçûìÿííûé_ãðàäèåíò_70-5" x1="220.01" y1="206.95" x2="263.71" y2="206.95" xlink:href="#Áåçûìÿííûé_ãðàäèåíò_70"/><linearGradient id="Áåçûìÿííûé_ãðàäèåíò_178" x1="218.66" y1="257.21" x2="218.66" y2="173.3" gradientUnits="userSpaceOnUse"><stop offset="0" stop-color="#9e8cef"/><stop offset="1" stop-color="#dac7f3"/></linearGradient><linearGradient id="Áåçûìÿííûé_ãðàäèåíò_55" x1="362.95" y1="233.03" x2="419.26" y2="233.03" gradientUnits="userSpaceOnUse"><stop offset="0" stop-color="#a999f1"/><stop offset="1" stop-color="#dac7f3"/></linearGradient><linearGradient id="Áåçûìÿííûé_ãðàäèåíò_71" x1="200.35" y1="161.86" x2="200.35" y2="139.73" gradientUnits="userSpaceOnUse"><stop offset="0.02" stop-color="#ffc2a9"/><stop offset="1" stop-color="#ff9595"/></linearGradient><linearGradient id="Áåçûìÿííûé_ãðàäèåíò_48" x1="214.28" y1="161.33" x2="214.28" y2="124.71" gradientUnits="userSpaceOnUse"><stop offset="0" stop-color="#ffeadb"/><stop offset="0.99" stop-color="#c27cb6"/></linearGradient><linearGradient id="Áåçûìÿííûé_ãðàäèåíò_71-2" x1="213.09" y1="186.25" x2="213.09" y2="129.79" xlink:href="#Áåçûìÿííûé_ãðàäèåíò_71"/><linearGradient id="Áåçûìÿííûé_ãðàäèåíò_73" x1="202.99" y1="177.44" x2="220.75" y2="177.44" gradientUnits="userSpaceOnUse"><stop offset="0.02" stop-color="#d1a1d6"/><stop offset="0.99" stop-color="#bd89c4"/></linearGradient><linearGradient id="Áåçûìÿííûé_ãðàäèåíò_71-3" x1="420.42" y1="220.64" x2="420.42" y2="145.14" xlink:href="#Áåçûìÿííûé_ãðàäèåíò_71"/><linearGradient id="Áåçûìÿííûé_ãðàäèåíò_48-2" x1="429.34" y1="196.45" x2="429.34" y2="158.94" xlink:href="#Áåçûìÿííûé_ãðàäèåíò_48"/><linearGradient id="Áåçûìÿííûé_ãðàäèåíò_64" x1="436.74" y1="183.5" x2="436.74" y2="166.69" gradientUnits="userSpaceOnUse"><stop offset="0" stop-color="#ffb0b0"/><stop offset="0.98" stop-color="#ffc2a9"/></linearGradient><linearGradient id="Áåçûìÿííûé_ãðàäèåíò_64-2" x1="446.49" y1="186.09" x2="446.49" y2="176.87" xlink:href="#Áåçûìÿííûé_ãðàäèåíò_64"/><linearGradient id="Áåçûìÿííûé_ãðàäèåíò_73-2" x1="407.05" y1="204.47" x2="424.2" y2="204.47" xlink:href="#Áåçûìÿííûé_ãðàäèåíò_73"/><linearGradient id="Áåçûìÿííûé_ãðàäèåíò_70-6" x1="383.19" y1="263.66" x2="383.19" y2="179.15" xlink:href="#Áåçûìÿííûé_ãðàäèåíò_70"/><linearGradient id="Áåçûìÿííûé_ãðàäèåíò_70-7" x1="197.11" y1="246.63" x2="338.46" y2="246.63" xlink:href="#Áåçûìÿííûé_ãðàäèåíò_70"/><linearGradient id="Áåçûìÿííûé_ãðàäèåíò_4" x1="321.73" y1="222.98" x2="348.75" y2="222.98" gradientUnits="userSpaceOnUse"><stop offset="0" stop-color="#ccedff"/><stop offset="1" stop-color="#755cbb"/></linearGradient><linearGradient id="Áåçûìÿííûé_ãðàäèåíò_4-2" x1="297.22" y1="270.4" x2="336.93" y2="270.4" xlink:href="#Áåçûìÿííûé_ãðàäèåíò_4"/><linearGradient id="Áåçûìÿííûé_ãðàäèåíò_4-3" x1="299.06" y1="288.35" x2="341.48" y2="288.35" xlink:href="#Áåçûìÿííûé_ãðàäèåíò_4"/><linearGradient id="Áåçûìÿííûé_ãðàäèåíò_4-4" x1="262.55" y1="243.9" x2="262.55" y2="196.29" xlink:href="#Áåçûìÿííûé_ãðàäèåíò_4"/><linearGradient id="Áåçûìÿííûé_ãðàäèåíò_4-5" x1="266.39" y1="247.9" x2="266.39" y2="211.81" xlink:href="#Áåçûìÿííûé_ãðàäèåíò_4"/><linearGradient id="Áåçûìÿííûé_ãðàäèåíò_4-6" x1="209.35" y1="201.77" x2="209.35" y2="174.5" xlink:href="#Áåçûìÿííûé_ãðàäèåíò_4"/><linearGradient id="Áåçûìÿííûé_ãðàäèåíò_4-7" x1="231.41" y1="177.76" x2="242.4" y2="177.76" xlink:href="#Áåçûìÿííûé_ãðàäèåíò_4"/><linearGradient id="Áåçûìÿííûé_ãðàäèåíò_70-8" x1="350.87" y1="243.9" x2="350.87" y2="193.36" xlink:href="#Áåçûìÿííûé_ãðàäèåíò_70"/><linearGradient id="Áåçûìÿííûé_ãðàäèåíò_70-9" x1="407.69" y1="233.03" x2="407.69" y2="206.62" xlink:href="#Áåçûìÿííûé_ãðàäèåíò_70"/><linearGradient id="Áåçûìÿííûé_ãðàäèåíò_70-10" x1="377.74" y1="231.85" x2="377.74" y2="211.66" xlink:href="#Áåçûìÿííûé_ãðàäèåíò_70"/><linearGradient id="Áåçûìÿííûé_ãðàäèåíò_4-8" x1="203.64" y1="203.51" x2="203.64" y2="196.01" xlink:href="#Áåçûìÿííûé_ãðàäèåíò_4"/><linearGradient id="Áåçûìÿííûé_ãðàäèåíò_70-11" x1="223.67" y1="226.37" x2="223.67" y2="185.39" xlink:href="#Áåçûìÿííûé_ãðàäèåíò_70"/><linearGradient id="Áåçûìÿííûé_ãðàäèåíò_4-9" x1="329.09" y1="197.52" x2="329.09" y2="166.69" xlink:href="#Áåçûìÿííûé_ãðàäèåíò_4"/><linearGradient id="Áåçûìÿííûé_ãðàäèåíò_4-10" x1="288.7" y1="193.36" x2="288.7" y2="150.8" xlink:href="#Áåçûìÿííûé_ãðàäèåíò_4"/><linearGradient id="Áåçûìÿííûé_ãðàäèåíò_25" x1="274.32" y1="201.14" x2="345.41" y2="201.14" gradientUnits="userSpaceOnUse"><stop offset="0" stop-color="#8642a0"/><stop offset="1" stop-color="#6456c0"/></linearGradient><linearGradient id="Áåçûìÿííûé_ãðàäèåíò_70-12" x1="280.45" y1="160.12" x2="326.71" y2="160.12" xlink:href="#Áåçûìÿííûé_ãðàäèåíò_70"/><linearGradient id="Áåçûìÿííûé_ãðàäèåíò_70-13" x1="399.38" y1="230.02" x2="399.38" y2="203.25" xlink:href="#Áåçûìÿííûé_ãðàäèåíò_70"/><linearGradient id="Áåçûìÿííûé_ãðàäèåíò_70-14" x1="361.53" y1="260.22" x2="361.53" y2="179.15" xlink:href="#Áåçûìÿííûé_ãðàäèåíò_70"/><linearGradient id="Áåçûìÿííûé_ãðàäèåíò_70-15" x1="274.37" y1="298.3" x2="274.37" y2="275.06" xlink:href="#Áåçûìÿííûé_ãðàäèåíò_70"/><linearGradient id="Áåçûìÿííûé_ãðàäèåíò_70-16" x1="319.52" y1="291.92" x2="319.52" y2="280.63" xlink:href="#Áåçûìÿííûé_ãðàäèåíò_70"/><linearGradient id="Áåçûìÿííûé_ãðàäèåíò_71-4" x1="319.02" y1="146.85" x2="319.02" y2="69.64" xlink:href="#Áåçûìÿííûé_ãðàäèåíò_71"/><linearGradient id="Áåçûìÿííûé_ãðàäèåíò_71-5" x1="290.24" y1="115.7" x2="290.24" y2="92.93" xlink:href="#Áåçûìÿííûé_ãðàäèåíò_71"/><linearGradient id="Áåçûìÿííûé_ãðàäèåíò_387" x1="329.75" y1="124.31" x2="330.71" y2="119.34" gradientUnits="userSpaceOnUse"><stop offset="0" stop-color="#e1616a"/><stop offset="1" stop-color="#ff8883"/></linearGradient><linearGradient id="Áåçûìÿííûé_ãðàäèåíò_48-3" x1="321.14" y1="120.5" x2="321.14" y2="70.77" xlink:href="#Áåçûìÿííûé_ãðàäèåíò_48"/><linearGradient id="Áåçûìÿííûé_ãðàäèåíò_59" x1="318.71" y1="100.13" x2="318.71" y2="90.28" gradientUnits="userSpaceOnUse"><stop offset="0" stop-color="#cf6074"/><stop offset="1" stop-color="#f37270"/></linearGradient><linearGradient id="Áåçûìÿííûé_ãðàäèåíò_184" x1="338.37" y1="103.26" x2="338.37" y2="94.69" gradientUnits="userSpaceOnUse"><stop offset="0" stop-color="#cf6074"/><stop offset="1" stop-color="#ff817f"/></linearGradient><linearGradient id="Áåçûìÿííûé_ãðàäèåíò_48-4" x1="339.17" y1="108.25" x2="339.17" y2="88.96" xlink:href="#Áåçûìÿííûé_ãðàäèåíò_48"/><linearGradient id="Áåçûìÿííûé_ãðàäèåíò_292" x1="320.06" y1="147.82" x2="320.06" y2="54.19" gradientUnits="userSpaceOnUse"><stop offset="0" stop-color="#2e33a0"/><stop offset="1" stop-color="#0665a5"/></linearGradient><linearGradient id="Áåçûìÿííûé_ãðàäèåíò_35" x1="344.65" y1="88.86" x2="344.65" y2="67.26" gradientUnits="userSpaceOnUse"><stop offset="0" stop-color="#ffeadb"/><stop offset="0.99" stop-color="#8860c7"/></linearGradient><linearGradient id="Áåçûìÿííûé_ãðàäèåíò_52" x1="315.22" y1="147.82" x2="315.22" y2="54.19" gradientUnits="userSpaceOnUse"><stop offset="0" stop-color="#ccc2db"/><stop offset="0.99" stop-color="#8860c7"/></linearGradient><linearGradient id="Áåçûìÿííûé_ãðàäèåíò_397" x1="321.49" y1="147.8" x2="321.49" y2="143.78" gradientUnits="userSpaceOnUse"><stop offset="0" stop-color="#776d7e"/><stop offset="1" stop-color="#9d68c2"/></linearGradient><linearGradient id="Áåçûìÿííûé_ãðàäèåíò_141" x1="333.3" y1="60.91" x2="333.3" y2="57.92" gradientUnits="userSpaceOnUse"><stop offset="0" stop-color="#1f77d1"/><stop offset="1" stop-color="#0686c9"/></linearGradient><linearGradient id="Áåçûìÿííûé_ãðàäèåíò_141-2" x1="314.26" y1="70.75" x2="314.26" y2="61.91" xlink:href="#Áåçûìÿííûé_ãðàäèåíò_141"/><linearGradient id="Áåçûìÿííûé_ãðàäèåíò_141-3" x1="346.28" y1="75.23" x2="346.28" y2="67.26" xlink:href="#Áåçûìÿííûé_ãðàäèåíò_141"/><linearGradient id="Áåçûìÿííûé_ãðàäèåíò_285" x1="293.55" y1="110.3" x2="283.36" y2="97.81" gradientUnits="userSpaceOnUse"><stop offset="0" stop-color="#ffeadb"/><stop offset="0.99" stop-color="#b060f4"/></linearGradient><linearGradient id="Áåçûìÿííûé_ãðàäèåíò_285-2" x1="294.62" y1="108.69" x2="289.6" y2="102.55" xlink:href="#Áåçûìÿííûé_ãðàäèåíò_285"/><linearGradient id="Áåçûìÿííûé_ãðàäèåíò_141-4" x1="313.67" y1="71.54" x2="330.93" y2="71.54" xlink:href="#Áåçûìÿííûé_ãðàäèåíò_141"/><linearGradient id="Áåçûìÿííûé_ãðàäèåíò_141-5" x1="338.02" y1="123.18" x2="343.26" y2="123.18" xlink:href="#Áåçûìÿííûé_ãðàäèåíò_141"/><linearGradient id="Áåçûìÿííûé_ãðàäèåíò_141-6" x1="331.56" y1="119.28" x2="337.2" y2="119.28" xlink:href="#Áåçûìÿííûé_ãðàäèåíò_141"/><linearGradient id="Áåçûìÿííûé_ãðàäèåíò_89" x1="373.22" y1="132.99" x2="550.28" y2="132.99" gradientUnits="userSpaceOnUse"><stop offset="0" stop-color="#9d68c2"/><stop offset="1" stop-color="#aec2ff"/></linearGradient><linearGradient id="Áåçûìÿííûé_ãðàäèåíò_85" x1="509.71" y1="181.66" x2="509.71" y2="128.26" gradientUnits="userSpaceOnUse"><stop offset="0" stop-color="#ccedff"/><stop offset="1" stop-color="#9d68c2"/></linearGradient><linearGradient id="Áåçûìÿííûé_ãðàäèåíò_85-2" x1="600.77" y1="155.62" x2="600.77" y2="132.1" xlink:href="#Áåçûìÿííûé_ãðàäèåíò_85"/><linearGradient id="Áåçûìÿííûé_ãðàäèåíò_85-3" x1="628.52" y1="155.62" x2="628.52" y2="132.1" xlink:href="#Áåçûìÿííûé_ãðàäèåíò_85"/><linearGradient id="Áåçûìÿííûé_ãðàäèåíò_85-4" x1="572.55" y1="155.62" x2="572.55" y2="132.1" xlink:href="#Áåçûìÿííûé_ãðàäèåíò_85"/><linearGradient id="Áåçûìÿííûé_ãðàäèåíò_65" x1="319.56" y1="97.83" x2="319.56" y2="73.21" gradientUnits="userSpaceOnUse"><stop offset="0" stop-color="#d93de3"/><stop offset="1" stop-color="#ff6dba"/></linearGradient><linearGradient id="Áåçûìÿííûé_ãðàäèåíò_14" x1="334.61" y1="97.83" x2="334.61" y2="73.21" gradientUnits="userSpaceOnUse"><stop offset="0" stop-color="#a242ea"/><stop offset="1" stop-color="#fe117e"/></linearGradient><linearGradient id="Áåçûìÿííûé_ãðàäèåíò_115" x1="214.82" y1="375.41" x2="228.13" y2="269.4" gradientUnits="userSpaceOnUse"><stop offset="0" stop-color="#067eff"/><stop offset="1" stop-color="#3e37a0"/></linearGradient><linearGradient id="Áåçûìÿííûé_ãðàäèåíò_302" x1="525.67" y1="113.35" x2="525.67" y2="104.41" gradientUnits="userSpaceOnUse"><stop offset="0" stop-color="#459fff"/><stop offset="1" stop-color="#a96dff"/></linearGradient><linearGradient id="Áåçûìÿííûé_ãðàäèåíò_302-2" x1="105.68" y1="218.08" x2="105.68" y2="206.95" xlink:href="#Áåçûìÿííûé_ãðàäèåíò_302"/><linearGradient id="Áåçûìÿííûé_ãðàäèåíò_322" x1="639.27" y1="95.15" x2="639.27" y2="86.21" gradientUnits="userSpaceOnUse"><stop offset="0" stop-color="#b31a8f"/><stop offset="1" stop-color="#fe117e"/></linearGradient><linearGradient id="Áåçûìÿííûé_ãðàäèåíò_322-2" x1="351.1" y1="124.57" x2="351.1" y2="118.25" xlink:href="#Áåçûìÿííûé_ãðàäèåíò_322"/><linearGradient id="Áåçûìÿííûé_ãðàäèåíò_25-2" x1="562.76" y1="264" x2="562.76" y2="257.68" xlink:href="#Áåçûìÿííûé_ãðàäèåíò_25"/><linearGradient id="Áåçûìÿííûé_ãðàäèåíò_25-3" x1="234.23" y1="295.17" x2="234.23" y2="289.52" xlink:href="#Áåçûìÿííûé_ãðàäèåíò_25"/><linearGradient id="Áåçûìÿííûé_ãðàäèåíò_97" x1="157.47" y1="282.81" x2="157.47" y2="236.15" gradientUnits="userSpaceOnUse"><stop offset="0" stop-color="#d906e3"/><stop offset="1" stop-color="#ff6df9"/></linearGradient><linearGradient id="Áåçûìÿííûé_ãðàäèåíò_97-2" x1="479.66" y1="348.86" x2="479.66" y2="290.49" xlink:href="#Áåçûìÿííûé_ãðàäèåíò_97"/><linearGradient id="Áåçûìÿííûé_ãðàäèåíò_206" x1="425.02" y1="269.67" x2="420.04" y2="226.98" gradientTransform="matrix(0.97, 0.26, -0.26, 0.97, 63.63, -54.68)" gradientUnits="userSpaceOnUse"><stop offset="0" stop-color="#1852a0"/><stop offset="1" stop-color="#067ed3"/></linearGradient><linearGradient id="Áåçûìÿííûé_ãðàäèåíò_206-2" x1="420.2" y1="269.83" x2="420.2" y2="226.09" xlink:href="#Áåçûìÿííûé_ãðàäèåíò_206"/><linearGradient id="Áåçûìÿííûé_ãðàäèåíò_107" x1="382.17" y1="284.79" x2="378.95" y2="257.18" gradientTransform="matrix(0.94, 0.33, -0.52, 1.49, 181.34, -235.91)" gradientUnits="userSpaceOnUse"><stop offset="0" stop-color="#188dc1"/><stop offset="1" stop-color="#06bfe7"/></linearGradient><linearGradient id="Áåçûìÿííûé_ãðàäèåíò_107-2" x1="534.25" y1="69.94" x2="545.58" y2="27.85" gradientTransform="matrix(1, 0, 0, 1, 0, 0)" xlink:href="#Áåçûìÿííûé_ãðàäèåíò_107"/><linearGradient id="Áåçûìÿííûé_ãðàäèåíò_206-3" x1="514.77" y1="65.08" x2="523.22" y2="33.7" gradientTransform="matrix(1, 0, 0, 1, 0, 0)" xlink:href="#Áåçûìÿííûé_ãðàäèåíò_206"/><linearGradient id="Áåçûìÿííûé_ãðàäèåíò_107-3" x1="100.5" y1="160.61" x2="108.23" y2="131.92" gradientTransform="matrix(-1, 0, 0, 1, 307.13, -18.2)" xlink:href="#Áåçûìÿííûé_ãðàäèåíò_107"/><linearGradient id="Áåçûìÿííûé_ãðàäèåíò_206-4" x1="87.22" y1="157.3" x2="92.98" y2="135.91" gradientTransform="matrix(-1, 0, 0, 1, 307.13, -18.2)" xlink:href="#Áåçûìÿííûé_ãðàäèåíò_206"/></defs><g class="cls-1"><g id="Isolation_Mode" data-name="Isolation Mode"><path class="cls-2" d="M188.74,354.38c0-.25.12-.37.35-.36l6.71.2a4.85,4.85,0,0,1,1.69.31,2.89,2.89,0,0,1,1.11.74,3,3,0,0,1,.59,1.14,4.89,4.89,0,0,1,.15,1.47l-.06,1.85a4.75,4.75,0,0,1-.24,1.46,2.73,2.73,0,0,1-.66,1.1,3,3,0,0,1-1.15.68,5.12,5.12,0,0,1-1.7.2l-3.61-.11-.75-2.12h-.1L191,363l-2.53-.08Zm2.34,6.33,4.28.13a1.41,1.41,0,0,0,1-.29,1.65,1.65,0,0,0,.34-1.12l0-1.5a1.59,1.59,0,0,0-.27-1.15,1.51,1.51,0,0,0-1-.33l-4.11-.12a.13.13,0,0,0-.13.05.15.15,0,0,0,0,.12Z" transform="translate(100.47 -18.2)"/><path class="cls-2" d="M203,358.21h-.09l-.08,2.68a.17.17,0,0,0,.17.18l7.54.23-.07,2.32-9.89-.3a.32.32,0,0,1-.34-.38l.25-8.21a.32.32,0,0,1,.36-.36l9.61.3a.32.32,0,0,1,.36.38l-.07,2.32-2.37.8h-.1l0-1.2c0-.09,0-.13-.12-.13l-5.07-.16a.16.16,0,0,0-.13.05.27.27,0,0,0,0,.12l0,1.12,4.18.12-.06,1.82-3.5-.1Z" transform="translate(100.47 -18.2)"/><path class="cls-2" d="M219.74,358.05h-.1l0-1c0-.1,0-.15-.14-.15l-4.72-.14a.38.38,0,0,0-.47.41v.22c0,.18,0,.29.08.34a.66.66,0,0,0,.33.12l5.53.94a3.77,3.77,0,0,1,.89.26,1.75,1.75,0,0,1,.59.42,1.44,1.44,0,0,1,.31.63,3.37,3.37,0,0,1,.07.88l0,.71a3.11,3.11,0,0,1-.17,1,1.59,1.59,0,0,1-.46.7,1.92,1.92,0,0,1-.82.41,4.27,4.27,0,0,1-1.25.11l-8-.24.07-2.32,7.14.21a.56.56,0,0,0,.43-.1.61.61,0,0,0,.11-.41v-.24a.54.54,0,0,0-.07-.33.47.47,0,0,0-.31-.13l-5.34-.84a4.22,4.22,0,0,1-.92-.25,1.72,1.72,0,0,1-.62-.41,1.34,1.34,0,0,1-.33-.61,2.74,2.74,0,0,1-.09-.85l0-.63a2.1,2.1,0,0,1,.56-1.49,2.37,2.37,0,0,1,1.74-.48l8,.24c.25,0,.37.14.36.41l0,1.84Z" transform="translate(100.47 -18.2)"/><path class="cls-2" d="M223.1,364l.27-8.94,2.53.08-.27,8.94Z" transform="translate(100.47 -18.2)"/><path class="cls-2" d="M235,360.53c0-.13,0-.27,0-.41s0-.27,0-.38v-.11l2.51.08-.13,4.38c0,.23-.12.34-.32.34l-6.73-.21a5.06,5.06,0,0,1-1.69-.3,2.8,2.8,0,0,1-1.11-.75,2.7,2.7,0,0,1-.59-1.14,4.89,4.89,0,0,1-.15-1.47l0-1.84a5.51,5.51,0,0,1,.24-1.47,2.93,2.93,0,0,1,.66-1.09,2.77,2.77,0,0,1,1.16-.68,4.87,4.87,0,0,1,1.7-.2l6.69.2a.32.32,0,0,1,.35.38l-.06,1.93-2.37.79h-.1l0-.86c0-.08,0-.12-.11-.12l-4.28-.13a2.32,2.32,0,0,0-.62.05.85.85,0,0,0-.42.22,1,1,0,0,0-.24.43,2.57,2.57,0,0,0-.1.68l0,1.58a1.65,1.65,0,0,0,.28,1.14,1.41,1.41,0,0,0,1,.35l4.24.13c.09,0,.13-.05.14-.15Z" transform="translate(100.47 -18.2)"/><path class="cls-2" d="M242.84,355.65a.75.75,0,0,1,.4.1.86.86,0,0,1,.2.27l3.2,6.53a.27.27,0,0,0,.23.16H247a.18.18,0,0,0,.21-.19l.2-6.73,2.3.07-.26,8.59a.31.31,0,0,1-.36.34l-3.64-.11a.77.77,0,0,1-.38-.08.79.79,0,0,1-.23-.29l-3.32-6.52a.25.25,0,0,0-.23-.16h-.12a.17.17,0,0,0-.2.19l-.21,6.72-2.29-.07.26-8.58c0-.24.12-.36.35-.35Z" transform="translate(100.47 -18.2)"/><circle class="cls-3" cx="290.47" cy="195.57" r="155.02" transform="translate(47.26 244.48) rotate(-45)"/><path class="cls-4" d="M176.52,185.65A23.77,23.77,0,0,0,166,176.39l-2.35,1.09,5.29,9.61a10.33,10.33,0,0,1-3.24,5.72v0a10.31,10.31,0,0,1-6.46-1.18l-4-10.23-2.35,1.1a23.85,23.85,0,0,0,.33,14s1,2.31,1.18,2.52c.93,1.08,3.36,2.34,8.05,2.05L178.65,232a8.47,8.47,0,1,0,8.76-4.09L174.1,195.66c3.17-3.34,3.84-6,3.6-7.5C177.65,187.84,176.52,185.65,176.52,185.65ZM189.85,239l-4.29,2-3.89-2.71.41-4.72,4.3-2,3.88,2.71Z" transform="translate(100.47 -18.2)"/><path class="cls-5" d="M177.7,188.16a23.82,23.82,0,0,0-10.56-9.26l-2.35,1.1,5.3,9.6a10.28,10.28,0,0,1-3.24,5.72h0a10.31,10.31,0,0,1-6.47-1.19l-4-10.22-2.35,1.1a23.79,23.79,0,0,0,.34,14s3.66,4.91,9.23,4.56l16.2,30.92a8.47,8.47,0,1,0,8.76-4.1l-13.3-32.24C179.11,194.13,177.7,188.16,177.7,188.16ZM191,241.48l-4.29,2-3.88-2.71.41-4.72,4.29-2,3.88,2.72Z" transform="translate(100.47 -18.2)"/><rect class="cls-6" x="153.34" y="181.8" width="2.59" height="2.78" transform="translate(37.47 64.48) rotate(-25.04)"/><rect class="cls-6" x="164.08" y="176.8" width="2.59" height="2.78" transform="translate(40.59 68.56) rotate(-25.04)"/><rect class="cls-6" x="185.92" y="239.83" width="4.74" height="2.78" transform="translate(16.07 84.18) rotate(-25.04)"/><path class="cls-7" d="M167.09,205.9l13.08,25.15a6.41,6.41,0,0,0,5.29-2.47L174.8,202.29A10.06,10.06,0,0,0,167.09,205.9Zm17.36,22.89a8.06,8.06,0,0,1-1.7,1.11,6.44,6.44,0,0,1-1.8.54L167.84,205.8a13.75,13.75,0,0,1,3.15-2.07,11,11,0,0,1,3.24-.95Z" transform="translate(100.47 -18.2)"/><path class="cls-6" d="M184.45,228.79l1-.21a5.66,5.66,0,0,1-5.29,2.47l.78-.61A7.17,7.17,0,0,0,184.45,228.79Z" transform="translate(100.47 -18.2)"/><path class="cls-8" d="M167.09,205.9l.75-.1a12.21,12.21,0,0,1,6.39-3l.57-.49a7.86,7.86,0,0,0-4.27.93A7.77,7.77,0,0,0,167.09,205.9Z" transform="translate(100.47 -18.2)"/><path class="cls-9" d="M163.62,203.6a29,29,0,0,0,11.66-5.42l1.7,4.12s-1.93-1.91-6.17-.18c-4.95,2-4.68,6-4.68,6Z" transform="translate(100.47 -18.2)"/><path class="cls-10" d="M177,202.3a5,5,0,0,0-2.59-.89L187.05,232l1.53-1.58Z" transform="translate(100.47 -18.2)"/><path class="cls-11" d="M177,202.3s-1.33,4.09,2.48,6Z" transform="translate(100.47 -18.2)"/><path class="cls-12" d="M367.66,400h-47c-4.92-27.32-16.36-62.87-16.36-62.87-2.78-1.65-8.21.38-8.21.38L278.9,400H236c-2.28-38.56,18.82-82.33,18.82-82.33h0a4.73,4.73,0,0,1-.56-2.39,5.68,5.68,0,0,1,1.6-1.86c1.16-1.06,2.54-2.12,2.54-2.12l80.11-.5s.81.41,1.84,1h0c1.75,1.06,4.12,2.7,4.12,3.9a5.47,5.47,0,0,1-.81,3l0,0C360.76,351.19,367.66,400,367.66,400Z" transform="translate(100.47 -18.2)"/><path class="cls-13" d="M273.34,400.08l-.49-.08c5.47-32.2,19.34-59.21,19.48-59.48l.06-.07,3.53-3.09.33.38-3.5,3.06C292.13,342,278.7,368.55,273.34,400.08Z" transform="translate(100.47 -18.2)"/><path class="cls-14" d="M327,400.08c-5.35-31.55-19.15-58.34-19.78-59.54l-3.12-2.8.33-.38,3.22,2.91c.14.27,14.38,27.53,19.85,59.73Z" transform="translate(100.47 -18.2)"/><path class="cls-15" d="M344.43,315.76a5.47,5.47,0,0,1-.81,3l0,0c-16.68,3.77-29.37,19.34-29.37,19.34C323.3,355.55,338.46,400,338.46,400H320.65c-4.92-27.32-16.36-62.87-16.36-62.87-2.78-1.65-8.21.38-8.21.38L278.9,400H267.78c4-26.18,15.73-58.14,15.73-58.14-11.55-13.45-28.73-24.19-28.73-24.19h0l-2-1.28,1.48-1.11c7.43,7.13,31.39,16.44,32.13,16.73l-30.53-18.59c1.16-1.06,2.54-2.12,2.54-2.12l80.11-.5s.81.41,1.84,1l-21.88,12Z" transform="translate(100.47 -18.2)"/><polygon class="cls-16" points="404.77 318.97 414.12 312.9 411.9 318.97 410.27 337.24 404.77 318.97"/><polygon class="cls-17" points="396.56 319.35 386.82 313.84 365.96 304.45 392.52 322 394.1 328.29 396.56 319.35"/><path class="cls-18" d="M322.88,149.69c.06.43.11.66.11.66a57.27,57.27,0,0,1-1.66,5.66,46,46,0,0,1-6.23,12.12,23.85,23.85,0,0,1-2.72,3.18c-14.59-4.58-21.78-18.85-24.54-25.95a.36.36,0,0,1,0-.11c-.53-1.34-.88-2.42-1.1-3.12h0c-.17-.56-.25-.87-.25-.87l.18-.37,0,0c.24-.5.48-1,.7-1.5a71.16,71.16,0,0,0,4-11.17c.71-2.62,1.09-4.64,1.27-5.71.09-.55.13-.85.13-.85l6.8,3.59L323,137.59a38.55,38.55,0,0,0-.5,5.94c0,1.25,0,2.37.09,3.32.07,1.16.19,2.08.28,2.68h0A.68.68,0,0,0,322.88,149.69Z" transform="translate(100.47 -18.2)"/><path class="cls-19" d="M316.38,172.88a20.1,20.1,0,0,1-4.84,3.54l-.12.07-.14-.08h0c-.51-.31-2.25-1.38-4.59-3.14-6.12-4.61-16.34-13.93-19.26-26.49l0-.05a31.14,31.14,0,0,1-.7-4.59h0c0-.41-.06-.82-.07-1.24a64.43,64.43,0,0,0,5.55,9.92c4.14,6.06,10.35,12.67,17.77,12.71,6.42,0,9.71-4.35,11.38-8.4a22.92,22.92,0,0,0,1.35-4.6v0c.07-.36.12-.68.17-1h0c0-.14,0-.26.05-.37.06-.45.08-.71.08-.71S325.45,163.81,316.38,172.88Z" transform="translate(100.47 -18.2)"/><path class="cls-20" d="M316.38,172.88a20.1,20.1,0,0,1-4.84,3.54h-.27c-.51-.31-2.25-1.38-4.59-3.14-6.12-4.61-16.34-13.93-19.26-26.49l0-.05a31.14,31.14,0,0,1-.7-4.59h0c0-.41-.06-.82-.07-1.24a64.43,64.43,0,0,0,5.55,9.92s4,11.1,12.78,16.6c4.38,2.75,7.7,2.35,10.14.73a15.09,15.09,0,0,0,4.95-6.54,15.38,15.38,0,0,0,1.28-5.58q0-.49,0-.9a22.92,22.92,0,0,0,1.35-4.6v0c.07-.36.12-.68.17-1h0c0-.14,0-.26.05-.37.06-.45.08-.71.08-.71S325.45,163.81,316.38,172.88Z" transform="translate(100.47 -18.2)"/><path class="cls-21" d="M372.54,263.57l-.16.08c-.82.1-3.37-.46-6.71-3.35h0s0,0,0,0l0,0c-2.8-2.45-6.16-6.54-9.51-13.24-6.7-13.39-8.62-22.33-8.93-23.89l0-.24-3.91,6.2c-2.65,8-7.67,40.95-7.58,42.37s4.45,8.34,4.36,9.19v0c-.12.86-2.08,2.75-2.64,4.81-.38,1.37,2.28,5.69,4.15,8.92h0A13.13,13.13,0,0,1,343.2,298c0,1.51-4.74,8.9-4.74,8.9v4l-.07.07-.22.2-.18.15c-1.8,1.42-9.43,6.07-33.27,7.35-28.25,1.51-47.07-7.58-47.07-7.58l1.42-3.89s-1.32-1.13-1.42-1.7,1-1.9,1-1.9-2.84-1.51-2.84-3.41,5.69-7.76,5.5-12.79-4.55-9.47-5.12-12.31,7.39-9.85,7.39-9.85c-6.82-21.6-8.15-50.59-8.15-50.59l-1.32-1.52s-8.15,18.57-15.54,27.66c-.88,1.08-1.81,2.15-2.77,3.18a81,81,0,0,1-6.36,6.15c-5.12,4.46-9.77,7.39-10.95,7.16-1.9-.38-9.48-15.35-9.13-30.7.16-7.3,4.56-15.47,9.13-22,.49-.7,1-1.39,1.48-2.06a104.89,104.89,0,0,1,7.84-9.45c.58-.62.91-.95.91-.95s-1-3.35-1.75-6.26a1.6,1.6,0,0,0,0-.21.36.36,0,0,0,0-.1.31.31,0,0,0,0-.07c-.42-1.79-.68-3.34-.44-3.72.63-1,4.3-2.15,4.93-2.9s3.28-13.52,5.3-14.91,5.35-2.3,16.72-6.77l1.73-.68c12.75-5,25.26-11.18,25.26-11.18l4.8-5.9h2.14l-.7,1.5,0,0c.34,1.52.73,3,1.17,4.37a.36.36,0,0,0,0,.11c6.6,20.82,23.58,27.53,23.58,27.53,11.8-8.71,11.57-22.54,11.57-22.54v-1.9l2.21.66,1.51,3.6s2.56,4,12.7,8.44A60.32,60.32,0,0,1,345,164c9.28,5.27,19.6,13.42,20.39,15.15a5.61,5.61,0,0,1,.27.86h0c1.09,4.28,3.33,20.31,5.41,26a13.1,13.1,0,0,0,4.86,6.56h0a7.61,7.61,0,0,0,1.94,1q.24,1.32.45,2.61C382.67,243.66,374.4,262.27,372.54,263.57Z" transform="translate(100.47 -18.2)"/><path class="cls-22" d="M263.71,211.81l-8.24,2.77-1.32-1.52s-8.15,18.57-15.54,27.66c-.88,1.08-1.81,2.15-2.77,3.18a81,81,0,0,1-6.36,6.15L223.2,223,220,202.43a104.89,104.89,0,0,1,7.84-9.45c.58-.62.91-.95.91-.95s-1-3.35-1.75-6.26a1.6,1.6,0,0,0,0-.21.36.36,0,0,0,0-.1.31.31,0,0,0,0-.07c-.42-1.79-.68-3.34-.44-3.72.63-1,4.3-2.15,4.93-2.9s3.28-13.52,5.3-14.91c0,0-1.32,12.25,5.69,27.79l3.41,4.8,10,8S259.58,209.5,263.71,211.81Z" transform="translate(100.47 -18.2)"/><path class="cls-23" d="M239.87,234c-1.77,13.13-21.34,23.24-21.34,23.24-4.36,0-9.23-7.58-13.65-16.93s-4.69-36.21-4.92-37.87-2.7-5-2.85-6.4,4-4.36,4-4.36l0-.07,0-.07c-.43-.92-2.85-6.11-2.68-7.06s4.82-3.31,4.82-3.31l.29,5.11s10.78-2,14.43-10.39l.64-2.56,1.8,1.2v11s.37,1.71.94,1.71,4.77-2.1,5.65-1.81,1.76,6.17,2.94,6.92,4.3,2.94,4.77,4a19,19,0,0,1,.25,4.15,42.4,42.4,0,0,0,.41,6.94C236,210.31,241.64,220.83,239.87,234Z" transform="translate(100.47 -18.2)"/><path class="cls-24" d="M418.86,222.72c-.88,1.39-5.3,4.3-6.44,5.44s0,4.87,0,4.87a153.35,153.35,0,0,1-39.88,30.54l-.16.08c-11.66-7.84-10.66-20.75-6.79-31.63a82.1,82.1,0,0,1,10.32-19.38h0a24.41,24.41,0,0,1,5.92-1.64,3.59,3.59,0,0,1,2.19.68c1.42.88,2.62,2.27,3.78,1.69,1.71-.86,5.53-9.89,8.12-10.14,1.81-.17,4.32,1.67,6,2.72.73.46,1.3.77,1.58.69.95-.25,4.17-4.11,4.43-4.21s1.72,1,1.72,1l-1,1.28a35,35,0,0,0,6.76,15.22l3.47-5.08S419.75,221.33,418.86,222.72Z" transform="translate(100.47 -18.2)"/><path class="cls-25" d="M322.93,149.3c0,.13,0,.26-.05.39a7.73,7.73,0,0,1-.19.8v0c-1.19,4.41-6,8.92-12.07,6.75-6.63-2.37-19.25-29.1-19.25-29.1l1.27-5.71,29.95,24.4.33,2.31Z" transform="translate(100.47 -18.2)"/><path class="cls-26" d="M223.2,144.41s-1.83-10.11-1-17.56a81,81,0,0,0-.21-15.92,4.11,4.11,0,0,0-3.14,0c-1.32.76-4.42,8.47-3,14.66s.32,21,.32,21H214l-4.54-6.25-2.21-.64s-12.73,12-12.54,19.14l1.66,6.35,15.68-.54L222.32,153Z" transform="translate(100.47 -18.2)"/><path class="cls-27" d="M207.29,139.73a81.75,81.75,0,0,0,2.11,14.78,3.54,3.54,0,0,1-3.57,3l-.8-.9s-.57,3.17-3.46,3.41l-2.75-2.75.71,2.27a3.89,3.89,0,0,1-3.6,2.33s-4.35-3.41-4.64-7.87l4.31-3.64v-2.8l5.12-3.6.09-2A12.09,12.09,0,0,1,207.29,139.73Z" transform="translate(100.47 -18.2)"/><path class="cls-28" d="M222.37,124.71a7.1,7.1,0,0,1-1.85,2.71,16,16,0,0,1-4.25,1.34l-.14,17.86H214l-4.54-6.25s2.3,3.56,2.44,6.25l-1.8.88-1.56-5.35-.74,3.85.74,4.8a12.57,12.57,0,0,1,7.57-2.42l.74,1.33S208.06,157,206,161.33c0,0,4.36-5.54,14.31-11.65l.95-2.93,1.25-7S221.34,129.63,222.37,124.71Z" transform="translate(100.47 -18.2)"/><path class="cls-29" d="M229.77,155.84c-.82,2.46-9.41,12.69-10.36,14.91a30,30,0,0,0-1.52,5.11c-4.22,9.13-14.43,10.39-14.43,10.39L203,178s-5.49-3.16-6.42-4.89v0l-.11-.29a68.8,68.8,0,0,1,0-7.58l9.61-3.89c4.17-5.4,14.31-11.65,14.31-11.65l.47-2.83c-7.28-3.58-6.06-14.41-4.83-15.74a5.4,5.4,0,0,1,3.5-1.32s2.66,8.71,4.36,12.79S230.59,153.38,229.77,155.84Z" transform="translate(100.47 -18.2)"/><path class="cls-30" d="M200.81,141.91s1.08,10,4.22,14.69A23.13,23.13,0,0,1,200.72,144Z" transform="translate(100.47 -18.2)"/><path class="cls-30" d="M195.6,147.55s1,8,6,12.46c0,0-4.36-2.18-6-9.66Z" transform="translate(100.47 -18.2)"/><path class="cls-31" d="M220.75,168.63S209.91,179.15,203,178l.47,8.24a18.28,18.28,0,0,0,15.07-12.95A30.87,30.87,0,0,1,220.75,168.63Z" transform="translate(100.47 -18.2)"/><path class="cls-32" d="M449.78,182.93s-9.95,18.19-21.6,23.78h-4L415,220.64s-5.94-3.73-6.38-16a11.17,11.17,0,0,0,2.59-4.62s-3.28-2.58-4.17-4.47-1.2-7.58-1.83-9.92-6-7.2-7.2-7.83-6.63-.95-6.63-.95-.76-2,0-2.9,9.22-4.24,13.83-1.08a20.77,20.77,0,0,0,.82,3.67c.51,1.26,4.55,5.74,5.18,5.74s3.35-2.27,4.55-4a178.56,178.56,0,0,0,8.74-19.32.5.5,0,0,1,0-.13c0-.07.05-.14.06-.2a.93.93,0,0,0,0-.13s0,0,0,0c1.14-3.85,7.77-11.24,11.31-13.26a2.09,2.09,0,0,1,2.33,1.51s-2.84,8.09-5.81,12.89c-.5.81-1,1.76-1.6,2.78h0c-2.53,4.65-5.38,10.74-5.79,11.63l-.05.11,1.58.81,4.27-4.05,4.38-4.15,10.05,10.61-1,1.26-3.14,4,1.59.29,3.7-4.09Z" transform="translate(100.47 -18.2)"/><path class="cls-33" d="M447.46,186.8l-3.18,4.67S426.82,178,423,176.87s-5.18-.38-5.18-.38l-3.91,5s7.2,6.38,7.83,15c0,0-2.4-10.86-10.55-14.15.63,0,3.35-2.27,4.55-4a178.56,178.56,0,0,0,8.74-19.32,5,5,0,0,0,.16,3.41c.86,1.59,5.92.09,6.22,0h0L425.1,174l-.05.11,1.58.81,4.27-4.05-2.14,5,15.58,2.75-3.14,4,1.59.29Z" transform="translate(100.47 -18.2)"/><path class="cls-34" d="M435.29,166.7s3-.44,5,3.48l-.45,1.26s3,.58,5.81,5.37a16.14,16.14,0,0,1-8.77,6.69s-2.91-.82-3.41-3.28l.56-1.58-2.27,1.71s-2.72.82-3.92-3.23Z" transform="translate(100.47 -18.2)"/><path class="cls-35" d="M450.7,181.67a4.69,4.69,0,0,0-2.47-4.8l-6,6.63a3.11,3.11,0,0,0,2.78,2.59S449.12,184.7,450.7,181.67Z" transform="translate(100.47 -18.2)"/><path class="cls-36" d="M407.05,195.57a44.46,44.46,0,0,0,17.15,11.14l-4.39,6.66-9.17-11.65.58-1.68S407.56,197.28,407.05,195.57Z" transform="translate(100.47 -18.2)"/><path class="cls-30" d="M439.83,171.44s-2.9,4.8-5.81,7.2l-.56,1.58s5.63-3.81,7.71-8.2A3.48,3.48,0,0,0,439.83,171.44Z" transform="translate(100.47 -18.2)"/><path class="cls-37" d="M418.86,222.72c-.88,1.39-5.3,4.3-6.44,5.44s0,4.87,0,4.87a153.35,153.35,0,0,1-39.88,30.54l-.16.08c-1.52.19-8.91-1.89-16.3-16.67-6.7-13.39-8.62-22.33-8.93-23.89l0-.24,1.63-2.21,2.42-27.28,1.7,5.49c6.44-7.77,12.51-19.7,12.51-19.7l.27.86h0c1.09,4.28,3.33,20.31,5.41,26a13.1,13.1,0,0,0,4.86,6.56v0h0C370,218.05,367,225.83,365.59,232a53.68,53.68,0,0,0-1.42,10,67.43,67.43,0,0,1,6.82-17,36.5,36.5,0,0,1,7.33-8.85,58.85,58.85,0,0,1,5.72-4.58c1.42.88,2.62,2.27,3.78,1.69-7.8,11.71-7.61,34.89-.28,30.47s9-13.8,9-13.8c-1.73-11.43-1.21-24.32.18-26.77,1.68.05,6.51,3.45,6.79,3.37a39.6,39.6,0,0,0,5.88,22.43l4.17-6.45a40,40,0,0,1-5.62-20.19c.25-.11,1.72,1,1.72,1l-1,1.28a35,35,0,0,0,6.76,15.22l3.47-5.08S419.75,221.33,418.86,222.72Z" transform="translate(100.47 -18.2)"/><path class="cls-38" d="M338.46,306.85v4l-.07.07-.22.2-.18.15c-1.8,1.42-9.43,6.07-33.27,7.35-28.25,1.51-47.07-7.58-47.07-7.58l1.42-3.89s-1.32-1.13-1.42-1.7,1-1.9,1-1.9-2.84-1.51-2.84-3.41c0-1.71,4.64-6.66,5.39-11.31a6.76,6.76,0,0,0,.11-1.48c-.19-5-4.51-9.43-5.11-12.27v0c-.57-2.84,7.39-9.85,7.39-9.85-6.82-21.6-8.15-50.59-8.15-50.59l-1.32-1.52s-8.15,18.57-15.54,27.66-18.19,16.87-20.08,16.49c-4.36,0-9.23-7.58-13.65-16.93s-4.69-36.21-4.92-37.87-2.7-5-2.85-6.4c4.74,8.15,12.29,5.75,12.29,5.75-5.47.12-8.31-10.11-8.31-10.11l0-.07,0-.07-2.67-7c.3.34,6.55,7.33,12.59,3,6.19-4.42,9.38-13,9.38-13v11s.37,1.71.94,1.71a134.15,134.15,0,0,1-2.74,17.29c-2.81,13.13-6.66,25.81-6.66,25.81s10.44-5.68,14.11-20.08A60.74,60.74,0,0,0,227.85,193a43.22,43.22,0,0,0-.84-7.21,1.6,1.6,0,0,0,0-.21.36.36,0,0,0,0-.1.43.43,0,0,0,0-.05l1,2.14,1.92,4.76c2.23,18.48-2.37,46.33-2.37,46.33,6.7-8.34,8.09-26.78,7.8-31.26-.13-2.14-.3-4.78-.41-6.94-.15-2.36-.25-4.15-.25-4.15l13.71,8.18-2.53-8,10,8s9,10.8,18.19,12.06,43.07.51,43.07.51-29.43,1.89-38,4.42-10.23,5.43-10.23,5.43c6.21,31.59,40.58,42.24,41.65,42.56-31.18-4.68-45.69-31.19-45.69-31.19s-.51,14.91,1.89,20.59,16.55,19.58,34.74,22.48a41.89,41.89,0,0,0,4.53.46c15.34.72,28-7.12,29.34-8l.11-.07,0,.05c-.49.75-6.78,9.59-32.18,10.56-1.54.06-3,.05-4.5,0h0c-23.54-1-35.53-16.67-35.53-16.67s-8.71,4.68-3.15,11.62l.18.22c1.64,1.89,5.25,4.2,9.52,6.58l.35.2c5.16,2.85,11.21,5.79,15.89,8.22l.07,0a59.23,59.23,0,0,1,6.52,3.73h0c1.32,1,1.59,1.58.3,1.73-6.57.76-31.45-4.67-32.46-3.16s1.23,5.43,1.23,5.43c22.84,11.32,71.71,5.74,73.25,5.57-40.9,10.47-74.36-2.79-74.36-2.79l1.11,3.92a146.33,146.33,0,0,0,39.69,6.82c21.48.5,34.87-5,34.87-5Z" transform="translate(100.47 -18.2)"/><path class="cls-39" d="M321.73,216.91s16.27.89,27,3.73l-5.55,8.41A73.59,73.59,0,0,0,321.73,216.91Z" transform="translate(100.47 -18.2)"/><path class="cls-40" d="M336.93,261.75s-10.15,8.47-20.13,12.38a67.34,67.34,0,0,1-19.58,4.3s5.74,1.7,19.86-.57S336,267.94,336,267.94Z" transform="translate(100.47 -18.2)"/><path class="cls-41" d="M341.48,294.36h0c-18.78,4.85-42.62-2.11-42.42-3s6.53.38,21.21-2.56c14.23-2.85,19.39-7.91,19.7-8.22-.12.86-2.08,2.75-2.64,4.81C337,286.81,339.61,291.13,341.48,294.36Z" transform="translate(100.47 -18.2)"/><path class="cls-42" d="M290.47,219.46c-16,1.63-20.36,6.1-20.36,6.1-4.51.57-14.64-11-14.64-11l-1.32-1.52s-8.15,18.57-15.54,27.66c-.88,1.08-1.81,2.15-2.77,3.18l1-2.36s1.72-.82,2.22-9.85-3.79-22.48-3.82-24.31-.66-11.09-.66-11.09l13.71,8.18-2.53-8,10,8s3.91,5.88,13.78,10.78C278.88,219.88,289.32,219.51,290.47,219.46Z" transform="translate(100.47 -18.2)"/><path class="cls-43" d="M254.15,213.06l9.56-1.25a71.76,71.76,0,0,0,11.49,5.65l-6.4,9.43s2.54,13.44,9.82,21c0,0-19.32-10.73-22-19.75Z" transform="translate(100.47 -18.2)"/><path class="cls-44" d="M198.36,184.46l2.73,7.19s2.79,9.7,8.31,10.11,10.93-16.27,10.93-16.27v-11s-5.87,12.6-12.22,14S198.36,184.46,198.36,184.46Z" transform="translate(100.47 -18.2)"/><path class="cls-45" d="M231.41,178.77s4.93,9.85,11,12.88c0,0-7.21-17.5-5.69-27.79C236.71,163.86,234.06,165.51,231.41,178.77Z" transform="translate(100.47 -18.2)"/><path class="cls-46" d="M351.16,193.36l1.7,5.49,1.73,45.05a108.67,108.67,0,0,1-7.44-20.81l1.6-2.45S351.42,203.66,351.16,193.36Z" transform="translate(100.47 -18.2)"/><path class="cls-47" d="M403.51,206.62s-1,22.13,8.45,24l.46,2.37S400.26,232.58,403.51,206.62Z" transform="translate(100.47 -18.2)"/><path class="cls-48" d="M387.82,213.35s-.36.79-3.78-1.69c0,0-11.83,8.38-16.38,20.19,0,0,7.29-10.85,11.17-12s4.81,3.16,4.81,3.16S385.18,216.88,387.82,213.35Z" transform="translate(100.47 -18.2)"/><path class="cls-49" d="M197.11,196s4.56,8.39,13.08,5.76c0,0-5.11,3.44-10.23.64C200,202.41,196.79,197,197.11,196Z" transform="translate(100.47 -18.2)"/><path class="cls-50" d="M226.92,185.39s6.26,23.4-10.06,41a27.14,27.14,0,0,0,13-18.05A38.66,38.66,0,0,0,226.92,185.39Z" transform="translate(100.47 -18.2)"/><path class="cls-51" d="M339.06,166.69s-.7,10.56-5.76,18.14-15.11,12.69-15.11,12.69,12.6-4.64,18.38-11.17S339.06,166.69,339.06,166.69Z" transform="translate(100.47 -18.2)"/><path class="cls-52" d="M274.61,150.8a66.6,66.6,0,0,0,2.85,17.83c2.84,9,27.51,24.73,27.51,24.73s-25.43-10.57-30.36-20.06S274.61,150.8,274.61,150.8Z" transform="translate(100.47 -18.2)"/><path class="cls-53" d="M274.32,192.86v14.38s33.11-.27,70.24,2.19l.85-13A648.13,648.13,0,0,0,274.32,192.86Z" transform="translate(100.47 -18.2)"/><path class="cls-54" d="M280.46,196.14q0-.37.36-.36l6.71.2a5,5,0,0,1,1.68.3,2.7,2.7,0,0,1,1.71,1.89,5.63,5.63,0,0,1,.15,1.47l-.06,1.85a5.44,5.44,0,0,1-.24,1.46,2.73,2.73,0,0,1-.66,1.1,3,3,0,0,1-1.15.68,5.12,5.12,0,0,1-1.7.2l-3.62-.11-.74-2.12h-.1l-.07,2.09-2.53-.08Zm2.34,6.33,4.29.13a1.38,1.38,0,0,0,1-.29,1.56,1.56,0,0,0,.34-1.12l0-1.5a1.59,1.59,0,0,0-.27-1.15,1.51,1.51,0,0,0-1-.33l-4.11-.12a.13.13,0,0,0-.13,0,.16.16,0,0,0-.06.12Z" transform="translate(100.47 -18.2)"/><path class="cls-54" d="M294.7,200h-.09l-.08,2.68a.16.16,0,0,0,.17.18l7.54.23-.07,2.32-9.89-.3a.32.32,0,0,1-.34-.38l.24-8.21a.33.33,0,0,1,.37-.36l9.61.3c.24,0,.36.13.36.38l-.07,2.32-2.38.8H300l0-1.2c0-.09,0-.13-.12-.13l-5.07-.16a.14.14,0,0,0-.13.05.56.56,0,0,0,0,.12l0,1.12,4.18.12-.06,1.82-3.5-.1Z" transform="translate(100.47 -18.2)"/><path class="cls-54" d="M311.46,199.81h-.09l0-1c0-.1,0-.15-.14-.15l-4.72-.14a.42.42,0,0,0-.36.1.46.46,0,0,0-.1.31v.22c0,.18,0,.29.08.34a.66.66,0,0,0,.32.12l5.53.94a3.63,3.63,0,0,1,.89.26,1.65,1.65,0,0,1,.59.42,1.45,1.45,0,0,1,.32.63,3.83,3.83,0,0,1,.07.87l0,.72a3.11,3.11,0,0,1-.17,1,1.68,1.68,0,0,1-.46.7,2,2,0,0,1-.83.41,4.57,4.57,0,0,1-1.24.11l-8-.24.07-2.32,7.14.21a.52.52,0,0,0,.42-.1.61.61,0,0,0,.12-.41v-.24a.54.54,0,0,0-.07-.33.5.5,0,0,0-.31-.13l-5.34-.84a4.06,4.06,0,0,1-.92-.25,1.72,1.72,0,0,1-.62-.41,1.46,1.46,0,0,1-.34-.61,3.11,3.11,0,0,1-.08-.85l0-.63a2.06,2.06,0,0,1,.56-1.49,2.35,2.35,0,0,1,1.73-.48l7.95.24c.26,0,.38.14.37.41l-.05,1.84Z" transform="translate(100.47 -18.2)"/><path class="cls-54" d="M314.82,205.76l.27-8.94,2.54.08-.28,8.94Z" transform="translate(100.47 -18.2)"/><path class="cls-54" d="M326.75,202.29c0-.13,0-.27,0-.42s0-.26,0-.37v-.11l2.51.07-.14,4.39c0,.23-.11.34-.31.34L322,206a5,5,0,0,1-1.68-.3,2.8,2.8,0,0,1-1.11-.75,2.59,2.59,0,0,1-.59-1.14,5.22,5.22,0,0,1-.16-1.47l.06-1.84a5.51,5.51,0,0,1,.24-1.47,2.73,2.73,0,0,1,.66-1.09,2.8,2.8,0,0,1,1.15-.68,4.93,4.93,0,0,1,1.71-.2l6.69.2c.24,0,.35.13.35.38l-.06,1.93-2.38.79h-.09l0-.86c0-.08,0-.12-.1-.12l-4.28-.13a2.32,2.32,0,0,0-.62.05.85.85,0,0,0-.42.22,1.06,1.06,0,0,0-.25.43,3.12,3.12,0,0,0-.09.68l-.05,1.58a1.65,1.65,0,0,0,.27,1.14,1.47,1.47,0,0,0,1,.35l4.24.12c.09,0,.13,0,.13-.14Z" transform="translate(100.47 -18.2)"/><path class="cls-54" d="M334.57,197.41a.68.68,0,0,1,.39.1.75.75,0,0,1,.21.27l3.2,6.53a.27.27,0,0,0,.23.16h.13a.17.17,0,0,0,.2-.19l.21-6.73,2.29.07-.26,8.59a.3.3,0,0,1-.35.34l-3.64-.11a.74.74,0,0,1-.38-.08.7.7,0,0,1-.23-.29l-3.32-6.52a.26.26,0,0,0-.23-.16h-.12a.18.18,0,0,0-.21.19l-.2,6.72-2.3-.07.26-8.58c0-.24.13-.36.36-.35Z" transform="translate(100.47 -18.2)"/><path class="cls-55" d="M326.71,152.71c-.78,9.3-3.61,15.78-6.63,20.15-4.16,6-8.66,8-8.66,8a52,52,0,0,1-11.76-7.09,60,60,0,0,1-19.21-28.5c6,14.54,14.86,23.35,21.56,28.31a43.28,43.28,0,0,0,9.41,5.52V174.5a30.9,30.9,0,0,1-3.1-1.36c-11.8-5.95-18-18.35-20.9-26.37l0-.05a57,57,0,0,1-2.18-7.39h2.14l-.7,1.5,0,0c.34,1.52.73,3,1.17,4.37a.36.36,0,0,0,0,.11c6.6,20.82,23.58,27.53,23.58,27.53,11.8-8.71,11.57-22.54,11.57-22.54v-1.9l2.21.66Z" transform="translate(100.47 -18.2)"/><path class="cls-56" d="M396.72,203.25s-3.21,10.47-.18,26.77c0,0,1.52-20.65,2.65-22.45s4.32-.95,4.32-.95A72.93,72.93,0,0,0,396.72,203.25Z" transform="translate(100.47 -18.2)"/><path class="cls-57" d="M365.59,260.22c-2.8-2.45-6.16-6.54-9.51-13.24-6.7-13.39-8.62-22.33-8.93-23.89l1.59-2.45,2.13-20.6,2-1.19a84.28,84.28,0,0,0,12.51-19.7,5.61,5.61,0,0,1,.27.86h0c1.09,4.28,3.33,20.31,5.41,26a13.1,13.1,0,0,0,4.86,6.56S363.6,230.87,363,243.9C362.47,255.76,365.11,259.62,365.59,260.22Z" transform="translate(100.47 -18.2)"/><path class="cls-58" d="M292.5,298.3s-22.19-3.64-31.25-9.48h0a6.76,6.76,0,0,0,.11-1.48c-.19-5-4.51-9.43-5.11-12.27.1.27.75,1.77,3.9,4.47a66.94,66.94,0,0,0,9.52,6.58l.35.2c6.4,3.78,11.91,6.34,15.89,8.22l.07,0c3.58,1.68,5.9,2.79,6.52,3.73Z" transform="translate(100.47 -18.2)"/><path class="cls-59" d="M340,280.63c-.12.86-2.08,2.75-2.64,4.81,0,0-8.14,8.62-38.27,6,.2-.85,6.53.38,21.21-2.56C334.5,286,339.66,280.94,340,280.63Z" transform="translate(100.47 -18.2)"/><path class="cls-60" d="M345,164l-19.26,6.24-5.64,2.62h-8.66l-3.1.25-1.64.12-4.67.37-2.35.19-23.1-8.36L272.43,164l-19-6.88,1.73-.68c12.75-5,25.26-11.18,25.26-11.18l4.8-5.9h2.14a71.16,71.16,0,0,0,4-11.17l1.27-5.71c.09-.55.13-.85.13-.85l6.8,3.59,22.93,18.34c0,1.25,0,2.37.09,3.32l.33,2.31c.06-.45.08-.71.08-.71l2.21.66,1.51,3.6s2.56,4,12.7,8.44A60.32,60.32,0,0,1,345,164Z" transform="translate(100.47 -18.2)"/><path class="cls-61" d="M330.31,146.43a31.37,31.37,0,0,1-18.89-2.78c-9.91-4.8-18.24-19-18.75-22.48s3.79-12.76,3.79-20-3.53-19.58,2.4-26.28,33.22-7.7,42.07.89c0,0,2.74,6.88,2.74,10.77a28.33,28.33,0,0,1-.42,3.91c-.08.59-.19,1.22-.29,1.87-.79,4.71-1.88,10.46-1.37,13a12.64,12.64,0,0,0,.79,2.46h0c1.09,2.52,2.71,4.53,3,6.71C345.76,117.38,341.94,137.59,330.31,146.43Z" transform="translate(100.47 -18.2)"/><path class="cls-62" d="M296.39,99.18s-2.45-6.15-8.61-6.25c0,0-3.6,1.43-4.17,4.17,0,0,1.33,10,2.85,14.59s7.07,4,7.07,4A23.53,23.53,0,0,0,296.39,99.18Z" transform="translate(100.47 -18.2)"/><path class="cls-63" d="M320.06,119.43a5.61,5.61,0,0,1,2.93.5c.89.67,4.11,3.79,8.18,4.65s6.81-2.62,7.67-2.8,1.83,1,1.83,1a3.43,3.43,0,0,0-2.5-2.06s-.86,3.27-6.76,2.15-8.42-3.74-8.42-3.74l-.3-.54A16.22,16.22,0,0,0,320.06,119.43Z" transform="translate(100.47 -18.2)"/><path class="cls-64" d="M311.34,88.84l.08-.63S317.31,77.87,329,77.59s14.28,7,14.28,7l2.16-3.28-4.92-10-34.23-.56-8.34,6.72L296.87,94l3.7,21.74,9,4.8,2.55-2.25c-.94-7.28-6.36-13.93-6.36-13.93l4-2.74s10.14,4.9,16,3.43c0,0,4.41-12.85,4.16-22.38C329.88,82.63,314.86,84.85,311.34,88.84Z" transform="translate(100.47 -18.2)"/><path class="cls-65" d="M310.82,89.6s.57-3.72,6.86-5.21c7-1.66,12.68-3.06,12.68-3.06s-1.24,4.08-3.57,5.61c0,0-7.41-.27-11.16.59S310.82,89.6,310.82,89.6Z" transform="translate(100.47 -18.2)"/><path class="cls-65" d="M343.25,84.61s-3.55,2.74-6,9.27c0,0,2.32-3,4.45-3A1.21,1.21,0,0,1,343,92.37,13.65,13.65,0,0,0,343.25,84.61Z" transform="translate(100.47 -18.2)"/><path class="cls-66" d="M313.17,100.13s.38-7.86,8.05-9.85a16.1,16.1,0,0,1,3,7.58S320.18,97.1,313.17,100.13Z" transform="translate(100.47 -18.2)"/><path class="cls-67" d="M335.15,103.26s.62-6.26,4.22-8.57c0,0,2.45,1.83,2.19,7.07C341.56,101.76,339.41,101,335.15,103.26Z" transform="translate(100.47 -18.2)"/><path class="cls-68" d="M313.17,100.13s2.5,3.07,9.47,3.67a11,11,0,0,0,1.21-6S317.43,97.2,313.17,100.13Z" transform="translate(100.47 -18.2)"/><path class="cls-68" d="M335.15,103.26v.92s1.07,2.24,4.93,2.62a10.75,10.75,0,0,0,1.34-5.07S339,101.11,335.15,103.26Z" transform="translate(100.47 -18.2)"/><path class="cls-69" d="M320.63,97.65A8.64,8.64,0,0,0,319,103.2a27.25,27.25,0,0,0,3.62.6,9.45,9.45,0,0,0,1.21-6A9.82,9.82,0,0,0,320.63,97.65Z" transform="translate(100.47 -18.2)"/><path class="cls-69" d="M338.81,101.83s-1,1.08-1.2,4.37a7.61,7.61,0,0,0,2.47.6,9.13,9.13,0,0,0,1.34-5.07A4.35,4.35,0,0,0,338.81,101.83Z" transform="translate(100.47 -18.2)"/><path class="cls-65" d="M320.06,103.43s-.64-4.25,1.8-5.87l2,.25a8.56,8.56,0,0,1-1.21,6S320.67,103.57,320.06,103.43Z" transform="translate(100.47 -18.2)"/><path class="cls-65" d="M339.69,101.64a18.3,18.3,0,0,0-1.32,4.84,5.55,5.55,0,0,0,1.71.32,8.31,8.31,0,0,0,1.34-5.07A4.08,4.08,0,0,0,339.69,101.64Z" transform="translate(100.47 -18.2)"/><path class="cls-70" d="M313.17,100.13s4.64-2.7,12.55-1.16l-1.46-1.11A13.26,13.26,0,0,0,313.17,100.13Z" transform="translate(100.47 -18.2)"/><path class="cls-70" d="M335.15,103.26a12.49,12.49,0,0,1,8.06-.93L341.42,101S338.51,100.56,335.15,103.26Z" transform="translate(100.47 -18.2)"/><path class="cls-11" d="M318.19,100.13a2.76,2.76,0,0,1,2.4.88A2.2,2.2,0,0,1,318.19,100.13Z" transform="translate(100.47 -18.2)"/><path class="cls-11" d="M336.86,103.8s2-.39,2.66.52C339.52,104.32,338.46,105,336.86,103.8Z" transform="translate(100.47 -18.2)"/><path class="cls-71" d="M313.64,100.59A18.13,18.13,0,0,0,323,105l.15-2.1-.53.89S317.09,103.47,313.64,100.59Z" transform="translate(100.47 -18.2)"/><path class="cls-71" d="M335.15,104.18s.64,2.3,5.34,3.34l-.15-1.12-.26.4S336.74,106.37,335.15,104.18Z" transform="translate(100.47 -18.2)"/><path class="cls-72" d="M325.72,113.4a16.75,16.75,0,0,1,5,0c3.22.38,6.84,1.26,8.82,0,0,0-2.63,2.63-4.91,3s-5.74-1.6-5.74-1.6l-1.52,0A4.19,4.19,0,0,1,325.72,113.4Z" transform="translate(100.47 -18.2)"/><path class="cls-73" d="M327.57,114.85a2.46,2.46,0,0,1,1.45-.38c.67.13,1.34,1.09,1.34,1.09A6.61,6.61,0,0,0,327.57,114.85Z" transform="translate(100.47 -18.2)"/><path class="cls-74" d="M339.52,113.4c.84-.82-3.52-8.59-5.6-8.87s-4,8.7-4,8.7,2.9.41,5.71.78S339.52,113.4,339.52,113.4Z" transform="translate(100.47 -18.2)"/><path class="cls-75" d="M342.63,89c-1.18-.15-5.35,4.92-5.35,4.92s-2.65,8.21-2.13,10.64,7,3.73,7,3.73l.27-.43h0a12.64,12.64,0,0,1-.79-2.46c-.51-2.52.58-8.27,1.37-13a9.67,9.67,0,0,0,.29-1.87C343.28,89.74,343.17,89,342.63,89Z" transform="translate(100.47 -18.2)"/><path class="cls-76" d="M342.44,122.3c-1.33-2.78-.51-4.23-12.06-5.74-16.35-2.15-17.75,2.84-20.53,2.08l-.33-.12c-3-1.17-10.1-8.14-10.28-17.53-.19-9.76,6.35-16.68,6.35-16.68-2.37-2-3.32-7.76-.76-10.23s6.92-1.89,17.62-.76,10.71.48,10.71.48c3.4.87,5.35,4.06,5.9,5.08.11.2.16.32.16.32L340.55,78a17.42,17.42,0,0,1,2.94,10.89s5.87-11.94,5.2-13.63a45.38,45.38,0,0,0-4.82-8h0s-.95-9.09-3.79-9.09-15,2.74-15,2.74a17.22,17.22,0,0,0,1.14-6.72l-.05.05c-4,3.55-7.83,3.94-13.31,6.48a13.87,13.87,0,0,0-5.13,3.72l-.37.44-.39.47c-.38.48-.77,1-1.24,1.47a.33.33,0,0,1-.06.06l0,0a15.68,15.68,0,0,1-1.59,1.49c-3.6,2.93-11.52,4.89-12.47,8s1.2,7.32,2.34,11.68a23.73,23.73,0,0,1,.61,8.21,16.13,16.13,0,0,1,2.52,12c-1.11,6.37-3.54,7.41-3.54,7.41a10.91,10.91,0,0,0-.9,6.79c3.5,13.92,18,22.21,18,22.21,12.88,4.8,21.35,2.71,21.35,2.71h0c9.37-6.11,12.58-26.33,12.72-27.27C344.53,120.34,342.79,123,342.44,122.3Zm-5.78,12.89c-2.27-.38-2.75-6.13-3.5-6.89s-4.87-.44-4.87-.44-3.79,4.3-5.3,4.42-9.6-3.16-7.85-8.08,7.85-5.56,7.85-5.56a14.8,14.8,0,0,0,7.89,3c4.74.31,6.45-.56,7-.81s3.62,1.13,3.54,5.43C341.38,129.21,338.94,135.57,336.66,135.19Z" transform="translate(100.47 -18.2)"/><path class="cls-77" d="M336.07,106.25s4.09,5.07,3.7,7c-.43,2.09-5.16,3.2-5.16,3.2s3.8-1.31,4.57-3.2A25.05,25.05,0,0,0,336.07,106.25Z" transform="translate(100.47 -18.2)"/><path class="cls-78" d="M343.49,88.86A17.42,17.42,0,0,0,340.55,78a29.09,29.09,0,0,0,3.31-10.71h0a36.71,36.71,0,0,1,1.54,7.1l3.28.86C349.36,76.92,343.49,88.86,343.49,88.86Z" transform="translate(100.47 -18.2)"/><path class="cls-79" d="M339.06,78.88c-.55-1-2.5-4.21-5.9-5.08,0,0,0,.66-10.71-.48s-15.06-1.7-17.62.76-1.61,8.24.76,10.23c0,0-6.54,6.92-6.35,16.68.18,9.39,7.27,16.36,10.28,17.53l-.14,1s.53,21.5,5.76,23.21,16.06.82,17.07,1.83-.14,2.61-.24,2.76h0s-8.47,2.09-21.35-2.71c0,0-14.48-8.29-18-22.21a10.91,10.91,0,0,1,.9-6.79s2.43-1,3.54-7.41a16.13,16.13,0,0,0-2.52-12,23.73,23.73,0,0,0-.61-8.21c-1.14-4.36-3.29-8.59-2.34-11.68a13.64,13.64,0,0,0,10-2.21s1.06-1.47,5.75-2.23,23.54,1.14,23.54,1.14a16.2,16.2,0,0,0-5.87-2.61c-3.76-1-16.6.16-18,.27,1.47-.26,16-2.76,17.69-2.26s8.06,3.41,8.06,3.41c-.57-2.89-6.21-9.85-6.21-9.85a88.48,88.48,0,0,0-13.17,1.23,17,17,0,0,0-7.7,3.54L307,65.35l.39-.47.37-.44,1.82-.31,9.14-3.69c3.07-1.64,7-5.7,7.48-6.2l.05-.05a17.22,17.22,0,0,1-1.14,6.72c7.72-.95,10.33-.47,10.33-.47C338.94,65.41,339.06,78.88,339.06,78.88Z" transform="translate(100.47 -18.2)"/><path class="cls-80" d="M310.61,144.66a48.53,48.53,0,0,1,11.88-.84c7.14.29,11.25.32,9.47,3.55C332,147.37,323,149.4,310.61,144.66Z" transform="translate(100.47 -18.2)"/><path class="cls-81" d="M335.43,60.44s4.35-1.69,6.06-1.42a3.37,3.37,0,0,0-1.39-1.09c-.71-.19-15,3-15,3S334,59.87,335.43,60.44Z" transform="translate(100.47 -18.2)"/><path class="cls-82" d="M326.62,62.05s-.34,4.73-1.85,6.44l-17.69,2.26-5.19-.92a12.94,12.94,0,0,0,4.22-3.43C308.32,63.82,319.85,61.29,326.62,62.05Z" transform="translate(100.47 -18.2)"/><path class="cls-83" d="M343.86,67.26a39.82,39.82,0,0,1,1.55,7.11l3.28.86A23.45,23.45,0,0,0,343.86,67.26Z" transform="translate(100.47 -18.2)"/><path class="cls-84" d="M295.66,107.52s-1.24-6-4.29-8.92a7.18,7.18,0,0,0-6.53-2s1,11.07,2,13.77,2.51,3.41,2.51,3.41a8.55,8.55,0,0,1-2.42-5.53c-.28-3.66-.38-8.83.43-9.44s4.06,1.78,4.06,1.78a10.83,10.83,0,0,0-1.65,4.52c-.61,3.27,1.66,5.64,2.51,5.59s0-3.78.1-4.85S294.37,105,295.66,107.52Z" transform="translate(100.47 -18.2)"/><path class="cls-85" d="M292.62,100.11a7.44,7.44,0,0,0-3,6.67c.36,4.49,2.92,4.29,2.93,3.35s-.49-3.37-.23-4.74,2.48-.75,2.48-.75A33,33,0,0,0,292.62,100.11Z" transform="translate(100.47 -18.2)"/><path class="cls-86" d="M344.69,120.09S340.56,139,332,147.37C332,147.37,341.76,143.52,344.69,120.09Z" transform="translate(100.47 -18.2)"/><path class="cls-86" d="M340.1,57.93s2.18,1.7,2.6,7.59S340.55,78,340.55,78a23.73,23.73,0,0,0,3.6-10.27C344.47,62.33,341.83,58.61,340.1,57.93Z" transform="translate(100.47 -18.2)"/><path class="cls-87" d="M313.67,70.28a51.22,51.22,0,0,0,10.59,2.21l6.67.6s-2.22-2.16-7-2.81A48.05,48.05,0,0,0,313.67,70.28Z" transform="translate(100.47 -18.2)"/><path class="cls-88" d="M338.07,120.5s2.41,0,3.37,3a25.71,25.71,0,0,1,1,4.5l.86-3.32s-1.12-4.21-2.28-5.15c-.83-.69-2.27-1.38-3-1.21Z" transform="translate(100.47 -18.2)"/><path class="cls-89" d="M331.56,117.47l.4,3.6a12.8,12.8,0,0,0,4.9-.57l.34-2.18A27.59,27.59,0,0,0,331.56,117.47Z" transform="translate(100.47 -18.2)"/><path class="cls-86" d="M345,164s17.23,12.58,19.47,16.91,3.14,17.9,6.16,23.78c0,0-2.07-9.61-3.52-17.15s-1.1-7.64-1.9-9.48S351.51,167.28,345,164Z" transform="translate(100.47 -18.2)"/><path class="cls-86" d="M341.9,234s-8.31,35.55-7.93,38,5.75,7.3,6,8.64c0,0-4.1,5.5-3.91,6.72s7.19,8.92,7,11.31c-.06.69-4.61,8.19-4.61,8.19s5.14-7.37,5.4-8.55-6.3-11-6.49-12c-.5-2.59,3.26-4.49,3.39-6.2s-5.09-5.87-5.14-8.65S341.9,234,341.9,234Z" transform="translate(100.47 -18.2)"/><path class="cls-86" d="M343.58,318.77S361.53,359.4,367.66,400C367.66,400,366.63,360.38,343.58,318.77Z" transform="translate(100.47 -18.2)"/><path class="cls-74" d="M229.77,155.84s-4.64-1-6.57-5-.67-9.92-.67-9.92a102.24,102.24,0,0,0,5.45,9.36C229.79,152.62,230.28,155.33,229.77,155.84Z" transform="translate(100.47 -18.2)"/><path class="cls-90" d="M373.08,134.65l3.22,91.8a6.77,6.77,0,0,0,6.76,6.53H541.19a6.77,6.77,0,0,0,6.77-6.61l2.21-92.86a6.77,6.77,0,0,0-6.81-6.93L379.8,127.65A6.78,6.78,0,0,0,373.08,134.65Z" transform="translate(100.47 -18.2)"/><path class="cls-91" d="M541.19,233.23H383.06a7,7,0,0,1-7-6.77l-3.22-91.8a7,7,0,0,1,7-7.26l163.57-1.07a7.06,7.06,0,0,1,5,2.1,7,7,0,0,1,2,5.08l-2.21,92.87A7,7,0,0,1,541.19,233.23Zm2.22-106.4h0L379.8,127.9a6.52,6.52,0,0,0-6.47,6.75l3.22,91.79a6.49,6.49,0,0,0,6.51,6.29H541.19a6.57,6.57,0,0,0,6.52-6.36l2.21-92.87a6.52,6.52,0,0,0-6.51-6.67Z" transform="translate(100.47 -18.2)"/><path class="cls-92" d="M373.32,139.33H550l.29-4.84a7.42,7.42,0,0,0-7.46-7.85L379.3,127.93a6.14,6.14,0,0,0-6.08,6.25Z" transform="translate(100.47 -18.2)"/><polygon class="cls-93" points="482.67 128.54 482.67 181.66 536.75 181.66 536.75 128.26 482.67 128.54"/><rect class="cls-94" x="589.01" y="132.1" width="23.52" height="23.52"/><rect class="cls-95" x="616.76" y="132.1" width="23.52" height="23.52"/><rect class="cls-96" x="560.79" y="132.1" width="23.52" height="23.52"/><rect class="cls-97" x="580.13" y="169.34" width="60.15" height="5.63"/><rect class="cls-97" x="565.09" y="177.91" width="75.2" height="1.74"/><rect class="cls-97" x="565.79" y="158.62" width="14.39" height="1.74"/><rect class="cls-97" x="593.58" y="158.62" width="14.39" height="1.74"/><rect class="cls-97" x="621.33" y="158.62" width="14.39" height="1.74"/><rect class="cls-97" x="560.79" y="180.75" width="24.19" height="1.74"/><rect class="cls-97" x="565.09" y="183.55" width="75.2" height="1.74"/><rect class="cls-97" x="560.79" y="186.35" width="79.49" height="1.74"/><rect class="cls-97" x="560.79" y="189.15" width="79.49" height="1.74"/><rect class="cls-97" x="565.09" y="200.47" width="75.2" height="1.74"/><rect class="cls-97" x="560.79" y="203.27" width="79.49" height="1.74"/><rect class="cls-97" x="560.79" y="206.08" width="79.49" height="1.74"/><rect class="cls-97" x="560.79" y="191.95" width="76.3" height="1.74"/><rect class="cls-97" x="565.09" y="194.75" width="75.2" height="1.74"/><rect class="cls-97" x="560.79" y="197.55" width="64.41" height="1.74"/><g class="cls-98"><path class="cls-99" d="M397.35,189.21a15.39,15.39,0,1,1,15.38-15.39A15.4,15.4,0,0,1,397.35,189.21Zm0-29.77a14.39,14.39,0,1,0,14.38,14.38A14.4,14.4,0,0,0,397.35,159.44Z" transform="translate(100.47 -18.2)"/></g><circle class="cls-11" cx="497.82" cy="155.62" r="8.36"/><g class="cls-98"><path class="cls-99" d="M436.28,161.84a15.39,15.39,0,1,1,15.38-15.38A15.4,15.4,0,0,1,436.28,161.84Zm0-29.77a14.39,14.39,0,1,0,14.38,14.39A14.41,14.41,0,0,0,436.28,132.07Z" transform="translate(100.47 -18.2)"/></g><circle class="cls-11" cx="436.28" cy="146.46" r="7.87" transform="matrix(0.16, -0.99, 0.99, 0.16, 324.26, 536.47)"/><g class="cls-98"><polygon class="cls-11" points="479.98 113.92 481.1 112.22 487.18 117.55 486.25 118.84 479.98 113.92"/><polygon class="cls-11" points="487.34 113.92 486.21 112.22 480.14 117.55 481.07 118.84 487.34 113.92"/></g><rect class="cls-11" x="591.74" y="113.37" width="54.44" height="2.73"/><polygon class="cls-100" points="305.25 73.96 305.25 97.59 333.5 97.83 333.88 73.21 305.25 73.96"/><polygon class="cls-101" points="333.88 73.21 335.73 76.31 334.81 97.81 333.5 97.83 333.88 73.21"/><polygon class="cls-11" points="310.29 81.94 312.9 78.15 327.01 89.99 324.85 92.88 310.29 81.94"/><polygon class="cls-11" points="327.37 81.94 324.76 78.15 310.65 89.99 312.82 92.88 327.37 81.94"/><path class="cls-102" d="M270.69,370.22H174a7.92,7.92,0,0,1-7.91-7.74l-1.81-79.3a7.92,7.92,0,0,1,7.92-8.1H272.87a7.91,7.91,0,0,1,7.91,8.13l-2.17,79.31A7.92,7.92,0,0,1,270.69,370.22Z" transform="translate(100.47 -18.2)"/><path class="cls-103" d="M270.69,370.47H174a8.21,8.21,0,0,1-8.16-8L164,283.18a8.16,8.16,0,0,1,8.17-8.35H272.87a8.16,8.16,0,0,1,8.16,8.39l-2.17,79.31A8.13,8.13,0,0,1,270.69,370.47ZM172.2,275.33a7.67,7.67,0,0,0-7.67,7.84l1.81,79.31A7.71,7.71,0,0,0,174,370h96.69a7.63,7.63,0,0,0,7.67-7.46l2.17-79.3a7.67,7.67,0,0,0-7.66-7.88Z" transform="translate(100.47 -18.2)"/><rect class="cls-11" x="290.82" y="273.1" width="50.85" height="2.18"/><rect class="cls-11" x="290.82" y="278.39" width="25.42" height="2.18"/><rect class="cls-11" x="290.82" y="282.82" width="25.42" height="2.18"/><rect class="cls-11" x="319.1" y="282.82" width="20.23" height="2.18"/><rect class="cls-11" x="290.82" y="287.24" width="40.99" height="2.18"/><rect class="cls-11" x="290.82" y="291.66" width="14.59" height="2.18"/><rect class="cls-11" x="308.41" y="304.92" width="25.23" height="2.18"/><rect class="cls-11" x="290.82" y="296.08" width="45.73" height="2.18"/><rect class="cls-11" x="290.82" y="300.5" width="35.18" height="2.18"/><rect class="cls-11" x="290.82" y="304.92" width="16.55" height="2.18"/><rect class="cls-11" x="290.82" y="309.34" width="25.42" height="2.18"/><rect class="cls-11" x="290.82" y="313.76" width="7.29" height="2.18"/><rect class="cls-11" x="301.11" y="313.76" width="26.46" height="2.18"/><rect class="cls-11" x="308.41" y="318.05" width="25.23" height="2.18"/><rect class="cls-11" x="290.82" y="318.05" width="16.55" height="2.18"/><rect class="cls-11" x="290.82" y="322.47" width="25.42" height="2.18"/><rect class="cls-11" x="290.82" y="326.9" width="7.29" height="2.18"/><rect class="cls-11" x="301.11" y="326.9" width="26.46" height="2.18"/><path class="cls-104" d="M530.14,108.88a4.47,4.47,0,1,1-4.47-4.47A4.47,4.47,0,0,1,530.14,108.88Z" transform="translate(100.47 -18.2)"/><path class="cls-105" d="M111.24,212.52a5.56,5.56,0,1,1-5.56-5.57A5.56,5.56,0,0,1,111.24,212.52Z" transform="translate(100.47 -18.2)"/><circle class="cls-106" cx="639.27" cy="90.68" r="4.47"/><circle class="cls-107" cx="351.1" cy="121.41" r="3.16"/><circle class="cls-108" cx="562.76" cy="260.84" r="3.16"/><circle class="cls-109" cx="234.23" cy="292.35" r="2.82"/><path class="cls-110" d="M181.92,282.81h-48.8a7.28,7.28,0,0,1-7.28-7l-1.08-32.09a7.28,7.28,0,0,1,7.27-7.53H182.9a7.29,7.29,0,0,1,7.28,7.5l-1,32.1A7.29,7.29,0,0,1,181.92,282.81Z" transform="translate(100.47 -18.2)"/><path class="cls-111" d="M181.92,283.06h-48.8a7.5,7.5,0,0,1-7.53-7.28l-1.08-32.09A7.53,7.53,0,0,1,132,235.9H182.9a7.53,7.53,0,0,1,7.53,7.76l-1,32.1A7.51,7.51,0,0,1,181.92,283.06ZM132,236.4a7,7,0,0,0-7,7.27l1.08,32.09a7,7,0,0,0,7,6.8h48.8a7,7,0,0,0,7-6.82l1-32.09a7,7,0,0,0-7-7.25Z" transform="translate(100.47 -18.2)"/><polygon class="cls-11" points="246.6 229.48 234.57 243.43 246.82 253.83 246.82 248.46 239.73 242.32 246.32 234.88 246.6 229.48"/><polygon class="cls-11" points="267.75 230.11 279.78 244.05 267.53 254.46 267.53 249.09 274.62 242.95 266.73 234.6 267.75 230.11"/><polygon class="cls-11" points="249.22 253.83 259.71 230.73 264.63 230.73 252.76 253.83 249.22 253.83"/><path class="cls-112" d="M510.25,348.86H449.2a9.12,9.12,0,0,1-9.11-8.8l-1.35-40.15a9.1,9.1,0,0,1,9.1-9.42h63.63a9.11,9.11,0,0,1,9.11,9.39L519.35,340A9.11,9.11,0,0,1,510.25,348.86Z" transform="translate(100.47 -18.2)"/><path class="cls-111" d="M510.24,349.11h-61a9.32,9.32,0,0,1-9.36-9l-1.35-40.16a9.34,9.34,0,0,1,9.35-9.67h63.63a9.36,9.36,0,0,1,9.36,9.64L519.6,340A9.31,9.31,0,0,1,510.24,349.11Zm-62.4-58.37A8.85,8.85,0,0,0,439,299.9l1.35,40.15a8.82,8.82,0,0,0,8.86,8.56h61A8.82,8.82,0,0,0,519.1,340l1.23-40.15a8.86,8.86,0,0,0-8.86-9.13Z" transform="translate(100.47 -18.2)"/><rect class="cls-97" x="551.44" y="278.75" width="55.91" height="33.21"/><polygon class="cls-11" points="574.45 286.99 574.45 303.72 588.74 294.59 574.45 286.99"/><rect class="cls-97" x="551.44" y="318.08" width="55.91" height="3.04"/><rect class="cls-11" x="551.44" y="318.08" width="14.47" height="3.04"/><path class="cls-113" d="M410,286.46l-2.92,8.34C408.7,290.19,411,287.2,410,286.46Zm-2.92,8.34-2.92,8.35C404.9,302.93,405.47,299.42,407.09,294.8Zm2.92-8.34-2.92,8.34C408.7,290.19,411,287.2,410,286.46Zm-2.92,8.34-2.92,8.35C404.9,302.93,405.47,299.42,407.09,294.8Zm8.43,7.24,2.83,1.6,3.06-8.35-3.28-.55c.06-.31.12-.62.16-.92a22.2,22.2,0,0,0,.28-4.17L422,287.5l-1.56-7.36-3.28,3.15a9.92,9.92,0,0,0-1.68-2.45c-.19-.2-.38-.39-.57-.56l2-4.64-5.35-1.74h0l-1.29,4.68a8.77,8.77,0,0,0-3.62.85l-.59-4.42-5.88,4.45,1.36,3.92a21.88,21.88,0,0,0-2.88,4.18l-2.83-1.6-3.06,8.35,3.27.55a23.14,23.14,0,0,0-.43,5.09l-3.43,2.15,1.56,7.36,3.29-3.14a9.27,9.27,0,0,0,2.25,3l-2,4.65,5.26,2.05.82-3,.55-2a8.94,8.94,0,0,0,3.63-.85l.58,4.42,5.89-4.46-1.36-3.91A23.16,23.16,0,0,0,415,303C415.15,302.7,415.33,302.37,415.52,302Zm-8.43-7.24c-1.62,4.62,0,9.37-2.92,8.35s-4-5.6-2.39-10.2,5.3-7.52,8.23-6.49S408.7,290.19,407.09,294.8Zm2.92-8.34-2.92,8.34C408.7,290.19,411,287.2,410,286.46Zm-2.92,8.34-2.92,8.35C404.9,302.93,405.47,299.42,407.09,294.8Z" transform="translate(100.47 -18.2)"/><path class="cls-114" d="M418.35,303.64l3.06-8.35-3.12-1.47-.51-.24.33-4.6,3.47-1.69-1.15-7.15-7.54-2.45,1.39,3.31,2.63-5.36-5.35-1.74-2.2-.71-5.27-2.06-1,3.6-4.58-2.18L392.63,277l1.79,4.82-5.51,15.27L386.19,307l5.23.57-1.7,3.93,5.27,2.06,7.54,2.45-1.21-2.42-.76-1.45,2.79.91,4.76,1.55,5.89-4.46-3.64-4.29L415,303ZM401.78,293c1.62-4.61,5.3-7.52,8.23-6.49l-2.92,8.34-2.92,8.35C401.24,302.12,400.17,297.55,401.78,293Z" transform="translate(100.47 -18.2)"/><path class="cls-115" d="M410.81,301.18l3.05-8.35-3.28-.55a22.53,22.53,0,0,0,.44-5.08l3.43-2.15-1.56-7.36-3.29,3.14a9.32,9.32,0,0,0-2.25-3l2-4.64-5.27-2.06-1.36,5a8.93,8.93,0,0,0-3.63.84l-.58-4.41L392.63,277l1.36,3.92a22.91,22.91,0,0,0-2.88,4.19l-2.83-1.6-3.06,8.35,3.28.55a22.44,22.44,0,0,0-.44,5.08l-3.43,2.15L386.2,307l3.28-3.14a9.32,9.32,0,0,0,2.25,3l-2,4.64,5.27,2.05,1.37-5a8.93,8.93,0,0,0,3.62-.85l.58,4.42,5.89-4.46-1.36-3.91a22.91,22.91,0,0,0,2.88-4.19Zm-14.19-.49c-2.93-1-4-5.6-2.38-10.2s5.3-7.52,8.22-6.49,4,5.59,2.38,10.2S399.55,301.71,396.62,300.69Z" transform="translate(100.47 -18.2)"/><polygon class="cls-116" points="522.47 269.3 514.92 266.85 511.49 269 519.04 271.45 522.47 269.3"/><polygon class="cls-117" points="514.47 291.94 506.92 289.49 505.57 285.57 513.11 288.03 514.47 291.94"/><polygon class="cls-116" points="507.82 259.63 511.96 260.83 513.36 259.49 516.11 260.38 517.38 257.44 509.83 254.99 507.82 259.63"/><path class="cls-116" d="M396.36,308.57l3.95,1.64-.33-2.49A7.06,7.06,0,0,1,396.36,308.57Z" transform="translate(100.47 -18.2)"/><path class="cls-116" d="M397,285.94l6.65,3.52a10.23,10.23,0,0,1,1.71-1.81S403.6,280.31,397,285.94Z" transform="translate(100.47 -18.2)"/><polygon class="cls-118" points="344.69 18.8 351.1 31.65 346.81 33.6 340.82 21.8 344.69 18.8"/><polygon class="cls-119" points="200.24 318.14 206.17 324.66 208.5 321.97 202.9 315.8 200.24 318.14"/><polygon class="cls-120" points="502.01 97.21 496.03 100.84 493.63 96.29 500.17 92.48 502.01 97.21"/><polygon class="cls-120" points="531.45 326.93 522.88 333.01 520.49 328.47 528.81 323.61 531.45 326.93"/><polygon class="cls-121" points="520.13 66.14 518.69 32.48 562.76 32.48 560.94 66.04 520.13 66.14"/><polygon class="cls-122" points="518.69 32.48 517.37 34.47 518.69 66.14 520.13 66.14 518.69 32.48"/><polygon class="cls-11" points="533.32 39.2 526.4 38.46 527.35 61.52 533.32 60.94 533.32 58.55 529.86 58.63 529.47 40.85 533.32 40.96 533.32 39.2"/><polygon class="cls-11" points="547.48 39.2 554.4 38.46 553.45 61.52 547.48 60.94 547.48 58.55 550.94 58.63 551.34 40.85 547.48 40.96 547.48 39.2"/><polygon class="cls-123" points="216.25 139.82 217.24 116.88 187.19 116.88 188.43 139.76 216.25 139.82"/><polygon class="cls-124" points="217.24 116.88 218.14 118.23 217.24 139.82 216.25 139.82 217.24 116.88"/><path class="cls-11" d="M105.19,139.69a20,20,0,0,1,3.88.14c.58.27-.16,5.64-.16,5.64l1.32,1.2L109,147.86s.07,5.44-.71,5.9-3.42,0-3.42,0V152.4a7.64,7.64,0,0,0,2.52-.16c.35-.29.32-5,.32-5l.58-.63-.58-.69s.11-3.39,0-4.32c0-.62-2.56-.65-2.56-.65Z" transform="translate(100.47 -18.2)"/><path class="cls-11" d="M97.64,139.69a19.87,19.87,0,0,0-3.87.14c-.58.27.15,5.64.15,5.64l-1.31,1.2,1.22,1.19s-.06,5.44.71,5.9,3.43,0,3.43,0V152.4a7.63,7.63,0,0,1-2.52-.16c-.36-.29-.32-5-.32-5l-.59-.63.59-.69s-.11-3.39,0-4.32c0-.62,2.56-.65,2.56-.65Z" transform="translate(100.47 -18.2)"/><path class="cls-91" d="M369.28,87.37,361.92,68.1l19.09,4Zm-6.57-18.59,6.72,17.58,10.7-13.94Z" transform="translate(100.47 -18.2)"/><rect class="cls-91" x="419.61" y="355.75" width="10.94" height="0.5" transform="translate(-12.88 470.18) rotate(-53.76)"/><polygon class="cls-91" points="461.81 261 454.87 252.35 455.26 252.04 462.2 260.69 461.81 261"/><polygon class="cls-91" points="247.48 321.72 233.62 311.66 233.91 311.26 247.78 321.32 247.48 321.72"/><rect class="cls-91" x="131.66" y="334.44" width="17.13" height="0.5" transform="translate(-110.52 225.22) rotate(-52.7)"/><rect class="cls-91" x="120.01" y="184.76" width="0.5" height="10.14" transform="translate(-3.25 189.8) rotate(-62.28)"/><polygon class="cls-91" points="569.95 53.21 569.57 52.88 579.94 41.05 580.32 41.38 569.95 53.21"/><rect class="cls-91" x="269.86" y="99.59" width="0.5" height="10.41" transform="translate(82.07 113.07) rotate(-26.45)"/><rect class="cls-91" x="192.55" y="261.77" width="15.54" height="0.5" transform="translate(-20.98 171.38) rotate(-39.91)"/><rect class="cls-125" width="600" height="400"/></g></g></svg>